<?xml version="1.0" encoding="UTF-8"?>
<svg version="1.1" xmlns="http://www.w3.org/2000/svg" width="1024" height="1024">
<path d="M0 0 C337.92 0 675.84 0 1024 0 C1024 337.92 1024 675.84 1024 1024 C686.08 1024 348.16 1024 0 1024 C0 686.08 0 348.16 0 0 Z " fill="#F5F6F5" transform="translate(0,0)"/>
<path d="M0 0 C16.43858938 4.95805185 28.78960902 18.03238382 36.75 32.8125 C45.5854529 51.55798791 46.44201934 74.94745557 42 95 C41.74347656 96.16273438 41.48695313 97.32546875 41.22265625 98.5234375 C34.62693658 125.529088 20.14286343 147.32801893 2 168 C1.53754883 168.52706543 1.07509766 169.05413086 0.59863281 169.59716797 C-16.09800477 188.47238561 -35.13077409 203.97452834 -56 218 C-56.92425781 218.62132812 -57.84851563 219.24265625 -58.80078125 219.8828125 C-60.86291662 221.26184549 -62.92851548 222.63506834 -65 224 C-65.66 223.67 -66.32 223.34 -67 223 C-66.43410156 222.59007812 -65.86820313 222.18015625 -65.28515625 221.7578125 C-64.55167969 221.21898437 -63.81820312 220.68015625 -63.0625 220.125 C-62.33160156 219.59132813 -61.60070312 219.05765625 -60.84765625 218.5078125 C-58.88901765 217.11987896 -58.88901765 217.11987896 -58 215 C-59.65 214.67 -61.3 214.34 -63 214 C-63.50559908 212.56445975 -64.0042749 211.1264798 -64.5 209.6875 C-64.7784375 208.88699219 -65.056875 208.08648437 -65.34375 207.26171875 C-66 205 -66 205 -66 202 C-66.66 202 -67.32 202 -68 202 C-68 206.62 -68 211.24 -68 216 C-69.32 215.67 -70.64 215.34 -72 215 C-72 210.38 -72 205.76 -72 201 C-77.61 200.34 -83.22 199.68 -89 199 C-93.19279864 203.9265384 -94.5546903 206.79258598 -94.17578125 213.27734375 C-94.11777344 213.84582031 -94.05976563 214.41429687 -94 215 C-97.875 213.25 -97.875 213.25 -99 211 C-99.13415472 208.3276379 -99.04318541 205.67749512 -99 203 C-100.11375 203.99 -100.11375 203.99 -101.25 205 C-104 207 -104 207 -108 207 C-107.18618568 201.91132196 -105.16185993 197.60877672 -103.05859375 192.9375 C-102.00351674 190.00975862 -101.62758153 188.07511251 -102 185 C-103.89586384 182.85410577 -103.89586384 182.85410577 -106 181 C-107.1671568 177.49852959 -107.13357453 174.67329964 -107 171 C-106.67 170.34 -106.34 169.68 -106 169 C-105.34 169 -104.68 169 -104 169 C-103.91363281 169.68707031 -103.82726562 170.37414062 -103.73828125 171.08203125 C-102.97210708 176.60383241 -102.97210708 176.60383241 -100 181.125 C-90.21872518 183.97787182 -79.42231818 181.14077273 -70 178 C-68.97549761 175.81862203 -68.97549761 175.81862203 -68 173 C-67.40045157 171.57237571 -66.77371325 170.15596606 -66.125 168.75 C-65.81820312 168.06421875 -65.51140625 167.3784375 -65.1953125 166.671875 C-64 165 -64 165 -61.8671875 164.265625 C-61.25101563 164.17796875 -60.63484375 164.0903125 -60 164 C-59.67 162.35 -59.34 160.7 -59 159 C-60.0725 159.061875 -61.145 159.12375 -62.25 159.1875 C-65.94173751 159.20689617 -69.02163122 158.52057517 -72.5625 157.5 C-82.2924408 154.91028192 -92.89057406 154.27659396 -102 159 C-108.19465062 162.60154106 -110.81010946 169.43032838 -113 176 C-113.1464714 177.55266653 -113.24694074 179.10995662 -113.31640625 180.66796875 C-113.37924805 182.00698242 -113.37924805 182.00698242 -113.44335938 183.37304688 C-113.48267578 184.30181641 -113.52199219 185.23058594 -113.5625 186.1875 C-113.62727539 187.59805664 -113.62727539 187.59805664 -113.69335938 189.03710938 C-113.79938665 191.35792854 -113.90145029 193.67885325 -114 196 C-119.03036819 192.14388945 -122.71342147 187.87637071 -126.5 182.8125 C-127.3521106 181.67856812 -127.3521106 181.67856812 -128.22143555 180.52172852 C-140.11936035 164.53512269 -140.11936035 164.53512269 -139 156 C-138.45102861 153.59825017 -137.78097169 151.34291506 -137 149 C-137.94875 149.495 -138.8975 149.99 -139.875 150.5 C-143 152 -143 152 -145 152 C-145.89395329 150.09209968 -146.76459334 148.17326194 -147.625 146.25 C-148.11226563 145.18265625 -148.59953125 144.1153125 -149.1015625 143.015625 C-150 140 -150 140 -149.5 137.7734375 C-144.81298318 132.23201658 -134.88544772 130.45653702 -128 129 C-128.309375 127.9275 -128.61875 126.855 -128.9375 125.75 C-130 122 -130 122 -130.375 119.75 C-130.8812586 117.7827285 -130.8812586 117.7827285 -133.0625 116.625 C-135 115 -135 115 -135.375 112 C-135 109 -135 109 -133 106 C-131.68 106 -130.36 106 -129 106 C-128.814375 105.29875 -128.62875 104.5975 -128.4375 103.875 C-126.44111906 99.88223813 -123.77193927 97.36877786 -120 95 C-117.55272137 94.26961064 -115.57814525 94.10523042 -113 94 C-113 91.69 -113 89.38 -113 87 C-112.34 87 -111.68 87 -111 87 C-110.01 88.485 -110.01 88.485 -109 90 C-106.43717258 90.72965366 -106.43717258 90.72965366 -104 91 C-103.67 90.34 -103.34 89.68 -103 89 C-99.70633253 87.90211084 -99.17581776 88.1568372 -96 89 C-74.68763554 90.29737692 -55.04980401 88.13998336 -35 81 C-34.36465332 80.77973145 -33.72930664 80.55946289 -33.07470703 80.33251953 C-16.20359589 74.40762281 -0.67358347 65.21483629 7.75 48.9375 C12.6922062 38.44921675 13.86612248 27.54372895 10.0546875 16.41796875 C7.46321475 10.47677753 3.93479122 5.12928141 0 0 Z " fill="#F2F2F1" transform="translate(591,293)"/>
<path d="M0 0 C2.98557259 2.28146235 5.90282064 4.64306088 8.81811523 7.01318359 C26.00379288 20.7444409 44.87456574 29.97990844 67 31 C67 31.66 67 32.32 67 33 C64.77345788 33.77913576 62.54413349 34.54818195 60.3125 35.3125 C59.07113281 35.74175781 57.82976562 36.17101562 56.55078125 36.61328125 C46.30704818 39.84540652 36.68335659 41.4325876 25.92399216 41.38012505 C23.83612207 41.37081591 21.74911298 41.38145491 19.6612854 41.39674377 C13.73643895 41.43632094 7.81167578 41.43804882 1.88671875 41.43579102 C-1.76596267 41.43573951 -5.41816981 41.4550911 -9.07072067 41.48512459 C-11.10645067 41.49579186 -13.14121384 41.48392302 -15.1769104 41.47129822 C-27.33353031 41.56823328 -37.18898736 44.30945043 -46 53 C-54.39755575 62.91586382 -57.1793058 74.09132247 -56.23193359 86.90625 C-52.22958662 123.03691066 -25.56587204 157.57699554 1.875 179.875 C2.73867188 180.55304688 3.60234375 181.23109375 4.4921875 181.9296875 C7.16807189 184.13875094 9.58254933 186.51323175 12 189 C7.28536663 187.40427794 3.54104084 184.82702965 -0.5 182 C-1.20487549 181.51015625 -1.90975098 181.0203125 -2.63598633 180.515625 C-28.08214961 162.70015397 -52.91686227 141.59604418 -72 117 C-72.64839844 116.21882812 -73.29679687 115.43765625 -73.96484375 114.6328125 C-87.9248985 97.77017211 -100.08957382 77.52403475 -105 56 C-105.29390625 54.76636719 -105.5878125 53.53273438 -105.890625 52.26171875 C-110.56748598 31.20548586 -108.22018564 11.62153356 -97 -7 C-91.04642721 -15.95098356 -81.52809249 -22.18146188 -71.06640625 -24.5625 C-44.05390538 -28.41651286 -21.10972546 -15.33250871 0 0 Z " fill="#095B95" transform="translate(488,330)"/>
<path d="M0 0 C16.43858938 4.95805185 28.78960902 18.03238382 36.75 32.8125 C45.5854529 51.55798791 46.44201934 74.94745557 42 95 C41.74347656 96.16273438 41.48695313 97.32546875 41.22265625 98.5234375 C34.62693658 125.529088 20.14286343 147.32801893 2 168 C1.30632324 168.79059814 1.30632324 168.79059814 0.59863281 169.59716797 C-16.09800477 188.47238561 -35.13077409 203.97452834 -56 218 C-56.92425781 218.62132812 -57.84851563 219.24265625 -58.80078125 219.8828125 C-60.86291662 221.26184549 -62.92851548 222.63506834 -65 224 C-65.66 223.67 -66.32 223.34 -67 223 C-66.32195313 222.45472656 -65.64390625 221.90945313 -64.9453125 221.34765625 C-47.77529428 207.43566087 -31.1420189 192.61843799 -19 174 C-18.62939453 173.43635742 -18.25878906 172.87271484 -17.87695312 172.29199219 C-9.82678343 159.80913412 -3.43961893 145.84424416 -3.25 130.8125 C-3.23453125 130.04719971 -3.2190625 129.28189941 -3.203125 128.4934082 C-3.40671019 121.24943371 -6.72559597 116.44082384 -11.5625 111.25 C-19.26554773 105.32765681 -30.36389722 103.91509128 -39.76953125 103.82421875 C-62.60903158 103.45836537 -81.31955075 100.34022462 -102 90 C-102 89.34 -102 88.68 -102 88 C-101.13084961 88.16081055 -100.26169922 88.32162109 -99.36621094 88.48730469 C-77.63525487 91.79706736 -55.49821488 88.29966802 -35 81 C-34.36465332 80.77973145 -33.72930664 80.55946289 -33.07470703 80.33251953 C-16.20359589 74.40762281 -0.67358347 65.21483629 7.75 48.9375 C12.6922062 38.44921675 13.86612248 27.54372895 10.0546875 16.41796875 C7.46321475 10.47677753 3.93479122 5.12928141 0 0 Z " fill="#DA443C" transform="translate(591,293)"/>
<path d="M0 0 C7.56421546 5.85507505 13.37708822 15.30581832 15.12109375 24.7265625 C16.54418506 37.33870924 13.07091751 48.42886186 5.25390625 58.3515625 C-1.74146992 66.14128542 -11.43344676 71.14799813 -21.9453125 71.96484375 C-35.28744412 72.24808453 -44.883946 68.69967378 -54.87890625 59.7265625 C-62.96699534 50.56453626 -65.78851906 39.60201635 -65.26171875 27.6015625 C-64.08337381 15.67382598 -58.11396835 6.90920123 -49.09765625 -0.66796875 C-33.55068317 -11.91762709 -15.46572059 -10.48196447 0 0 Z " fill="#F3F2F1" transform="translate(539.87890625,692.2734375)"/>
<path d="M0 0 C8.66488588 4.82359975 16.36206183 13.36672982 20.14453125 22.51953125 C22.60271029 32.52061583 22.89832377 44.38721107 18.4375 53.8125 C16.76171875 56.55859375 16.76171875 56.55859375 15 59 C14.47019531 59.75410156 13.94039062 60.50820313 13.39453125 61.28515625 C9.17140054 66.65184255 4.0277403 69.91402769 -2 73 C-2.61230469 73.34160156 -3.22460938 73.68320312 -3.85546875 74.03515625 C-11.72762661 77.77139011 -23.12131598 77.04009988 -31.375 74.9375 C-42.30559098 71.01794465 -49.93990211 63.23541239 -55.375 53.25 C-57.90498071 47.51272092 -58.54415605 42.49917169 -58.5625 36.25 C-58.56491699 35.47043945 -58.56733398 34.69087891 -58.56982422 33.88769531 C-58.29742558 24.34365426 -55.18870586 17.15660772 -49 10 C-48.49726562 9.3915625 -47.99453125 8.783125 -47.4765625 8.15625 C-35.06875743 -5.64365028 -16.35795192 -7.06716362 0 0 Z " fill="#F1F2F2" transform="translate(642,688)"/>
<path d="M0 0 C7.40843234 7.40843234 11.99503838 16.03194751 12.19311523 26.53759766 C12.16351253 39.51902775 10.08799766 49.15431972 0.8125 58.8125 C-9.15794519 67.8829581 -18.64388293 70.44650385 -32.04296875 70.14453125 C-42.90550691 69.53953543 -51.03566578 63.62724934 -58.1875 55.8125 C-60.49072592 52.94442375 -62.41850113 50.03523061 -64.1875 46.8125 C-64.52652344 46.2246875 -64.86554688 45.636875 -65.21484375 45.03125 C-68.97695358 37.12561829 -68.23724534 25.64679925 -66.0625 17.375 C-61.72284702 5.28886367 -53.35847823 -2.53302486 -42.0546875 -8.0234375 C-26.48070812 -14.34638826 -12.86574263 -8.82943122 0 0 Z " fill="#F1F3F3" transform="translate(433.1875,694.1875)"/>
<path d="M0 0 C9.39002693 6.11253062 16.13152245 13.64389673 19.23828125 24.45703125 C20.5604681 35.04844377 18.4346236 44.6092766 12.18359375 53.3203125 C5.06508525 61.63344959 -2.29188498 66.76923071 -13.41015625 67.79296875 C-21.13734187 67.8739665 -27.15128719 67.62929574 -33.76171875 63.45703125 C-34.44621094 63.04453125 -35.13070313 62.63203125 -35.8359375 62.20703125 C-44.05797536 56.69435063 -49.15413463 48.78035305 -51.328125 39.1796875 C-52.73798877 30.32675917 -52.09407171 21.78707384 -47.25 14.0390625 C-36.146913 -0.85653961 -17.94417653 -8.77064241 0 0 Z " fill="#0A5B96" transform="translate(496.76171875,239.54296875)"/>
<path d="M0 0 C0.66 -0.0103125 1.32 -0.020625 2 -0.03125 C4.96150207 0.75539899 6.09600083 2.11834542 8 4.5 C8.5146637 7.5736084 8.5146637 7.5736084 8.53344727 11.22460938 C8.54637062 12.22534233 8.54637062 12.22534233 8.55955505 13.24629211 C8.58220982 15.44584232 8.57547869 17.64411801 8.56640625 19.84375 C8.57164185 21.37545144 8.5779181 22.90714965 8.58518982 24.43884277 C8.59559281 27.64672025 8.59103406 30.85415411 8.57641602 34.06201172 C8.55922101 38.17161705 8.58273078 42.27982517 8.61790562 46.3892746 C8.63987198 49.55150607 8.6384403 52.71340272 8.6301403 55.87568665 C8.62932048 57.39074741 8.63619002 58.90583268 8.65091133 60.42082214 C8.66834715 62.53988414 8.65382957 64.65642964 8.63110352 66.77539062 C8.63014175 67.98022095 8.62917999 69.18505127 8.62818909 70.4263916 C8 73.5 8 73.5 5.64805603 75.88122559 C2.34920636 77.89783452 0.79579189 78.29078998 -3 77.5 C-5.03805176 75.65401595 -6.39285066 73.76891671 -8 71.5 C-8.886875 72.28375 -9.77375 73.0675 -10.6875 73.875 C-15.3698353 77.7188706 -19.47728993 79.04262262 -25.53125 78.87109375 C-31.9225969 77.91036914 -37.32913688 74.83670786 -41.375 69.8125 C-47.43343749 60.60436347 -49.39673816 51.98891348 -47.59765625 41.0546875 C-45.68897591 33.89401747 -40.93029279 28.37808842 -35.015625 24.046875 C-30.15933436 21.28850192 -25.4975801 20.57172008 -20 21.5 C-11.22981366 24.27018634 -11.22981366 24.27018634 -9 26.5 C-8.9906543 25.85450195 -8.98130859 25.20900391 -8.97167969 24.54394531 C-8.91790899 21.61186056 -8.8342766 18.68135992 -8.75 15.75 C-8.73582031 14.73421875 -8.72164062 13.7184375 -8.70703125 12.671875 C-8.46075658 5.185125 -8.46075658 5.185125 -6.203125 1.828125 C-3.89598998 0.43729892 -2.6716771 -0.04174495 0 0 Z " fill="#D9443C" transform="translate(725,555.5)"/>
<path d="M0 0 C6.70627703 4.0512322 12.73958118 10.28521761 15.03125 17.9140625 C16.79360085 27.2341872 15.07748197 34.81887722 10.4375 43.0625 C6.18553559 49.06273404 0.57940206 52.44637853 -6.5625 54.0625 C-16.835159 54.96621944 -25.46602048 54.39298078 -33.703125 47.83203125 C-40.14040209 41.70579906 -42.55208109 34.09749205 -43.0625 25.375 C-42.9157847 17.57952692 -39.93592639 10.96735657 -34.8515625 5.08203125 C-25.74212809 -3.2648487 -11.27498836 -5.05973856 0 0 Z " fill="#085992" transform="translate(332.5625,578.9375)"/>
<path d="M0 0 C6.42478647 4.61416483 11.16986561 9.72124595 13.1484375 17.54296875 C14.5192033 27.50784015 12.86810873 35.24755153 7.1484375 43.54296875 C2.0836932 49.50496379 -3.91598852 52.21398888 -11.63671875 52.859375 C-18.9924384 53.1640651 -25.82869233 53.27926336 -31.8515625 48.54296875 C-32.46257813 48.08019531 -33.07359375 47.61742187 -33.703125 47.140625 C-39.70876577 41.91443973 -43.06413079 34.68752262 -44.26171875 26.86328125 C-44.57079509 18.23601993 -42.25870283 11.82462555 -36.7265625 5.23046875 C-26.9519108 -4.84180856 -12.4897633 -7.40672009 0 0 Z " fill="#DA433B" transform="translate(786.8515625,580.45703125)"/>
<path d="M0 0 C8.54938339 4.41408382 15.18366467 11.238494 18.25 20.4375 C19.15892442 30.22706305 17.62888408 38.33578916 11.625 46.25 C6.14330376 52.18032612 -2.23097027 55.52630746 -10.1875 55.875 C-18.13945613 55.79789012 -24.58833983 52.87212315 -30.6953125 47.83203125 C-36.13773101 42.07510112 -38.93460825 34.73663499 -39.1875 26.875 C-38.8187094 18.69245862 -36.66814455 12.2919467 -30.953125 6.30078125 C-21.94856206 -1.31477996 -11.22552535 -4.40934015 0 0 Z " fill="#DA443C" transform="translate(565.75,293.5625)"/>
<path d="M0 0 C2.02092308 1.55525177 3.37979759 3.00175037 5 5 C5.495 5.495 5.495 5.495 6 6 C6.39152344 9.52371092 6.41041808 11.37616451 4.4375 14.375 C1.00404943 16.66396705 -0.92457992 16.54338934 -5 16 C-6.20757776 15.37043137 -7.39451357 14.70029165 -8.5625 14 C-14.31391681 10.84853873 -20.63958206 11.24262338 -27 12 C-31.93852217 14.25265923 -34.80894426 17.71486801 -38 22 C-40.07796273 28.23388819 -40.24164162 36.87299225 -37.8125 43.0625 C-34.55119041 48.34807072 -30.88874674 51.88893985 -25 54 C-17.96889738 55.1088914 -13.44365327 53.50083956 -7.32421875 50.12890625 C-4.02158178 48.52476829 -1.59263997 48.3533248 2 49 C4.4375 50.625 4.4375 50.625 6 53 C6.78347151 57.00440996 6.22927616 58.61787307 4.125 62.125 C-1.92184119 68.68866523 -11.74183628 69.94270399 -20.1875 70.3125 C-30.53717235 70.18611323 -40.40067672 65.57381383 -47.71484375 58.29296875 C-54.54229575 50.04095934 -57.89284943 39.77661298 -57.41796875 29.13671875 C-55.94725566 18.09949809 -50.49132952 9.29890096 -41.9296875 2.31640625 C-29.96578021 -5.84520662 -12.75988471 -7.02131222 0 0 Z " fill="#D9443C" transform="translate(574,564)"/>
<path d="M0 0 C2.75 1.8125 2.75 1.8125 5 4 C9.65158974 7.72127179 14.28174584 7.58990309 20 7 C20.845625 6.649375 21.69125 6.29875 22.5625 5.9375 C29.24345541 3.36790177 35.73769552 6.50153181 41.875 9.1875 C51.01600507 13.31031022 60.15174093 17.68726988 68 24 C68.495 25.485 68.495 25.485 69 27 C64.24078165 29.37960917 59.35024261 27.8857836 54.5 26.5 C43.1859267 23.51513141 32.48187588 23.65007216 22.3125 29.5625 C17.24108658 34.90804387 14.01115838 42.32116215 13.68359375 49.66796875 C13.62075195 51.00698242 13.62075195 51.00698242 13.55664062 52.37304688 C13.51732422 53.30181641 13.47800781 54.23058594 13.4375 55.1875 C13.37272461 56.59805664 13.37272461 56.59805664 13.30664062 58.03710938 C13.20061335 60.35792854 13.09854971 62.67885325 13 65 C7.96963181 61.14388945 4.28657853 56.87637071 0.5 51.8125 C-0.06807373 51.05654541 -0.63614746 50.30059082 -1.22143555 49.52172852 C-13.11936035 33.53512269 -13.11936035 33.53512269 -12 25 C-11.45102861 22.59825017 -10.78097169 20.34291506 -10 18 C-10.94875 18.495 -11.8975 18.99 -12.875 19.5 C-16 21 -16 21 -18 21 C-18.89395329 19.09209968 -19.76459334 17.17326194 -20.625 15.25 C-21.11226563 14.18265625 -21.59953125 13.1153125 -22.1015625 12.015625 C-23 9 -23 9 -22.49609375 6.78125 C-17.69158531 1.06099974 -7.20972648 -1.6351957 0 0 Z " fill="#0A5C96" transform="translate(464,424)"/>
<path d="M0 0 C6.00491929 3.73639422 11.42603815 9.76848704 13.5 16.5625 C13.80078125 19.5703125 13.80078125 19.5703125 13.8125 22.6875 C13.82925781 23.72132813 13.84601563 24.75515625 13.86328125 25.8203125 C13.5 28.5625 13.5 28.5625 12.46044922 30.21557617 C9.43408279 32.2948369 6.30803243 31.93070603 2.76953125 31.85546875 C2.01911057 31.85122391 1.26868988 31.84697906 0.49552917 31.84260559 C-1.89918026 31.8258245 -4.29304534 31.7881749 -6.6875 31.75 C-8.3118368 31.73495235 -9.9361868 31.72126409 -11.56054688 31.70898438 C-15.54068948 31.67592305 -19.52020163 31.62414594 -23.5 31.5625 C-21.03105014 36.976644 -21.03105014 36.976644 -16.5 40.5625 C-10.06703759 41.55368152 -5.16667081 40.72529301 0.5 37.5625 C3.89122574 37.15555291 5.78920534 37.22580779 8.875 38.6875 C10.5 40.5625 10.5 40.5625 11.1875 43.375 C10.31615706 47.41486273 8.72140502 48.69947185 5.6171875 51.265625 C-1.80538512 55.8122931 -11.08268098 55.53969239 -19.5 54.5625 C-26.88349863 52.55306683 -32.3475805 47.92880894 -36.5 41.5625 C-40.60490548 33.47825085 -41.0623495 24.32130515 -38.69140625 15.58203125 C-35.55539255 8.58296952 -30.00876163 2.91289362 -23.20703125 -0.6328125 C-16.47567919 -2.63376275 -6.48416829 -2.83439692 0 0 Z " fill="#085A92" transform="translate(471.5,578.4375)"/>
<path d="M0 0 C3.5 1 3.5 1 6 3.1875 C7.95910906 6.86082949 7.61411372 7.99471516 6.5 12 C4.81805868 15.19113666 2.86120597 18.17879341 0.875 21.1875 C0.06011108 22.44735718 0.06011108 22.44735718 -0.77124023 23.73266602 C-1.85034334 25.40042927 -2.93317879 27.06578444 -4.02001953 28.72851562 C-5.89897524 31.61234999 -7.73121644 34.52319928 -9.5625 37.4375 C-10.9817619 39.68737319 -12.31422336 41.78782032 -14.06665039 43.78930664 C-15.85875151 46.55331203 -15.8551879 48.22633208 -15.8359375 51.5 C-15.84882813 52.551875 -15.86171875 53.60375 -15.875 54.6875 C-15.875 56.89584715 -15.86718721 59.10420812 -15.8515625 61.3125 C-15.97020398 69.38012082 -15.97020398 69.38012082 -18.8203125 72.71484375 C-22.39311158 74.42832902 -24.58345617 74.62944454 -28.5 74 C-31.21484375 72.15625 -31.21484375 72.15625 -33.5 69 C-33.97275339 65.30704795 -33.70760448 61.65036466 -33.5625 57.9375 C-33.55314491 44.22813128 -38.73196718 35.87524595 -46.5 25 C-54.95158373 12.54133169 -54.95158373 12.54133169 -55.25 7.375 C-54.5 4 -54.5 4 -53 2 C-49.36076536 0.54430614 -46.25208667 -0.25115335 -42.5 1 C-40.99121094 2.69262695 -40.99121094 2.69262695 -39.609375 4.92578125 C-38.84294678 6.14950439 -38.84294678 6.14950439 -38.06103516 7.39794922 C-37.54589355 8.25662598 -37.03075195 9.11530273 -36.5 10 C-36.00161621 10.82129395 -35.50323242 11.64258789 -34.98974609 12.48876953 C-33.51144373 14.95877655 -32.06410691 17.44448191 -30.625 19.9375 C-30.12742188 20.78634766 -29.62984375 21.63519531 -29.1171875 22.50976562 C-28.64796875 23.31994141 -28.17875 24.13011719 -27.6953125 24.96484375 C-27.27266113 25.6930835 -26.85000977 26.42132324 -26.41455078 27.17163086 C-25.5 29 -25.5 29 -25.5 31 C-24.84 31 -24.18 31 -23.5 31 C-23.23429199 30.11916748 -22.96858398 29.23833496 -22.69482422 28.33081055 C-20.78874502 23.01723504 -17.66353327 18.54357675 -14.625 13.8125 C-13.99980469 12.81541016 -13.37460937 11.81832031 -12.73046875 10.79101562 C-12.12074219 9.83517578 -11.51101563 8.87933594 -10.8828125 7.89453125 C-10.32996582 7.02675049 -9.77711914 6.15896973 -9.20751953 5.26489258 C-6.39486428 1.53412295 -4.7531226 0 0 0 Z " fill="#095991" transform="translate(285.5,559)"/>
<path d="M0 0 C1.59702003 -0.0237545 1.59702003 -0.0237545 3.2263031 -0.04798889 C4.9435836 -0.04054909 4.9435836 -0.04054909 6.69555664 -0.03295898 C7.87662491 -0.03915756 9.05769318 -0.04535614 10.27455139 -0.05174255 C12.77189306 -0.0588455 15.26928203 -0.05565854 17.76660156 -0.04296875 C21.588208 -0.02911619 25.40736067 -0.06315607 29.22875977 -0.10131836 C31.65519266 -0.10226965 34.08162861 -0.10041018 36.50805664 -0.09545898 C37.65088608 -0.10871719 38.79371552 -0.1219754 39.97117615 -0.13563538 C47.85552461 -0.04309703 47.85552461 -0.04309703 51.92822266 2.84619141 C53.66821289 5.53344727 53.66821289 5.53344727 53.66821289 9.15844727 C52.68286896 12.48398302 52.33402683 13.51799708 49.66821289 15.53344727 C47.49169922 15.87402344 47.49169922 15.87402344 45.00024414 15.82641602 C44.10756836 15.81674805 43.21489258 15.80708008 42.29516602 15.79711914 C40.90201172 15.75941406 40.90201172 15.75941406 39.48071289 15.72094727 C38.07015625 15.70064453 38.07015625 15.70064453 36.63110352 15.67993164 C34.30956251 15.64457822 31.98917636 15.59523401 29.66821289 15.53344727 C29.68486748 16.51277473 29.68486748 16.51277473 29.70185852 17.5118866 C29.81249852 24.30872921 29.88789991 31.10531595 29.94287109 37.90283203 C29.96801128 40.43939607 30.00212826 42.97588769 30.04541016 45.51220703 C30.10607951 49.15879178 30.13442863 52.80441859 30.15649414 56.45141602 C30.18230057 57.58491989 30.20810699 58.71842377 30.23469543 59.88627625 C30.23749559 67.75109137 30.23749559 67.75109137 27.32519531 71.75341797 C24.04786082 73.94904838 22.53825864 74.25908084 18.66821289 73.53344727 C16.01123047 72.26098633 16.01123047 72.26098633 13.66821289 69.53344727 C12.94669216 65.46913178 13.08840474 61.44637194 13.17993164 57.33032227 C13.18700638 56.13739563 13.19408112 54.94446899 13.20137024 53.71539307 C13.2293655 49.90410742 13.29211887 46.09428912 13.35571289 42.28344727 C13.38078888 39.70013514 13.40360326 37.1168 13.42407227 34.53344727 C13.47920933 28.19961303 13.56288904 21.86663497 13.66821289 15.53344727 C13.07806396 15.54915771 12.48791504 15.56486816 11.87988281 15.58105469 C9.20525703 15.64342666 6.53078425 15.68244384 3.85571289 15.72094727 C2.92694336 15.74608398 1.99817383 15.7712207 1.04125977 15.79711914 C-0.29775391 15.81162109 -0.29775391 15.81162109 -1.66381836 15.82641602 C-2.48599854 15.84212646 -3.30817871 15.85783691 -4.15527344 15.87402344 C-6.33178711 15.53344727 -6.33178711 15.53344727 -8.09619141 14.26123047 C-9.82805563 11.83949502 -9.74387712 9.47513274 -9.82788086 6.56860352 C-8.57512881 1.42936084 -4.86133079 0.03221643 0 0 Z " fill="#075891" transform="translate(384.331787109375,559.466552734375)"/>
<path d="M0 0 C4.51225716 1.33696508 4.51225716 1.33696508 6.375 4 C6.77563477 7.19873047 6.77563477 7.19873047 6.81640625 11.1171875 C6.82961411 11.81135773 6.84282196 12.50552795 6.85643005 13.22073364 C6.89730123 15.43886285 6.91897708 17.65657977 6.9375 19.875 C6.96135094 22.08615094 6.98960421 24.29691704 7.02928162 26.50784302 C7.0646822 28.51923053 7.08461709 30.53087254 7.10375977 32.54248047 C7.36348376 35.85320168 7.76598743 38.1061312 9.375 41 C13.07660822 42.23386941 16.52293766 42.44267652 20.375 42 C23.61113354 40.25746655 24.19895315 39.52814056 25.375 36 C25.48012963 33.61748382 25.53022947 31.23240219 25.55078125 28.84765625 C25.57397438 27.41730291 25.59809151 25.98696431 25.62304688 24.55664062 C25.65818175 22.30727179 25.68752414 20.05844801 25.70092773 17.80883789 C25.7164157 15.63361213 25.75661594 13.45996419 25.80078125 11.28515625 C25.81536377 9.98457275 25.82994629 8.68398926 25.8449707 7.34399414 C26.45594824 3.48929155 27.26704001 2.2861895 30.375 0 C33.3125 -0.5625 33.3125 -0.5625 36.375 0 C39.77551866 2.66112576 41.21715235 4.14005088 42.00610352 8.43823242 C42.00501587 10.3772644 42.00501587 10.3772644 42.00390625 12.35546875 C42.00631821 13.05714676 42.00873016 13.75882477 42.01121521 14.48176575 C42.01023879 15.96356871 41.99689359 17.44540907 41.97192383 18.92700195 C41.93785442 21.16422668 41.95120949 23.3974397 41.97070312 25.63476562 C41.96252458 34.32432076 41.66505781 42.9673448 35.76147461 49.89282227 C29.87002529 55.67461222 22.83892019 57.14984795 14.8125 57.4375 C7.49518534 57.24965762 3.20059678 55.31185191 -2.375 50.75 C-9.11235256 42.51545798 -9.28409304 34.92866467 -9.20141602 24.7175293 C-9.18746845 22.30704741 -9.22178141 19.90039429 -9.25976562 17.49023438 C-9.26071628 15.94791572 -9.25886086 14.40559224 -9.25390625 12.86328125 C-9.26716446 12.14860184 -9.28042267 11.43392242 -9.29408264 10.69758606 C-9.22216324 6.82691196 -8.70617979 5.10500327 -6.31225586 2.00854492 C-3.625 0 -3.625 0 0 0 Z " fill="#D9423A" transform="translate(596.625,577)"/>
<path d="M0 0 C0.66 0 1.32 0 2 0 C3.19140625 1.3203125 3.19140625 1.3203125 4.5625 3.125 C7.00313075 6.10665727 9.42287534 8.08328034 12.6875 10.125 C16.20129393 12.35138708 18.3755046 14.04029247 20 18 C20.144375 18.86625 20.28875 19.7325 20.4375 20.625 C20.79990488 23.17677953 20.79990488 23.17677953 23.0625 24.8125 C23.701875 25.204375 24.34125 25.59625 25 26 C24.61637671 31.49860044 23.00220587 33.33840739 19 37 C16.93196594 39.35022194 14.89603603 41.72528062 12.8671875 44.109375 C9.59192805 47.42574649 6.13847901 47.21495836 1.6875 47.3125 C-3.76615117 47.25802402 -6.91381999 46.88187101 -11 43 C-14.71820975 39.11278072 -16.3246026 36.02619219 -18 31 C-18.70125 30.505 -19.4025 30.01 -20.125 29.5 C-22 28 -22 28 -22.375 25 C-22 22 -22 22 -20 19 C-18.68 19 -17.36 19 -16 19 C-15.814375 18.29875 -15.62875 17.5975 -15.4375 16.875 C-13.44111906 12.88223813 -10.77193927 10.36877786 -7 8 C-4.55272137 7.26961064 -2.57814525 7.10523042 0 7 C0 4.69 0 2.38 0 0 Z " fill="#0D5D95" transform="translate(478,380)"/>
<path d="M0 0 C0.46148438 0.36351562 0.92296875 0.72703125 1.3984375 1.1015625 C13.84631159 10.91601289 13.84631159 10.91601289 28.8359375 14.30078125 C36.87504698 13.1834321 42.17589408 8.41512495 47.8359375 2.92578125 C50 1 50 1 53 0 C51.90259356 6.53589767 49.88043712 11.61002491 46.5625 17.3125 C43.26467614 23.22501319 41.111224 28.52500232 39.70703125 35.18359375 C36.60594527 47.53653846 27.24632194 60.44032667 17 68 C17.86339937 62.53180396 17.86339937 62.53180396 18.51171875 60.0078125 C19.91361297 54.26104045 20.21587889 48.70048581 20.25 42.8125 C20.259104 42.05227539 20.26820801 41.29205078 20.27758789 40.50878906 C20.24667732 34.72283581 19.93159603 29.31712844 16.08203125 24.69921875 C15.33308594 24.03535156 14.58414063 23.37148438 13.8125 22.6875 C8.21476613 17.41479584 2.96991994 11.1880671 0 4 C0 2.68 0 1.36 0 0 Z " fill="#D8443D" transform="translate(526,424)"/>
<path d="M0 0 C0.66 0 1.32 0 2 0 C2.08636719 0.68707031 2.17273438 1.37414062 2.26171875 2.08203125 C3.02789292 7.60383241 3.02789292 7.60383241 6 12.125 C15.23484495 14.81849644 26.78284556 12.83695397 35.4140625 8.8984375 C35.93742188 8.60195313 36.46078125 8.30546875 37 8 C37.721875 8.598125 38.44375 9.19625 39.1875 9.8125 C41.70971395 11.77422196 44.2301697 13.41723983 47 15 C46.85831863 16.43791516 46.71148957 17.8753237 46.5625 19.3125 C46.48128906 20.11300781 46.40007813 20.91351563 46.31640625 21.73828125 C46 24 46 24 45 27 C44.58135253 33.65941558 44.71162455 39.70696751 47 46 C45.109375 45.7734375 45.109375 45.7734375 43 45 C41.953125 43.0390625 41.953125 43.0390625 41.25 40.625 C41.00765625 39.83351563 40.7653125 39.04203125 40.515625 38.2265625 C40 36 40 36 40 33 C39.34 33 38.68 33 38 33 C38 37.62 38 42.24 38 47 C36.68 46.67 35.36 46.34 34 46 C34 41.38 34 36.76 34 32 C28.39 31.34 22.78 30.68 17 30 C12.80720136 34.9265384 11.4453097 37.79258598 11.82421875 44.27734375 C11.88222656 44.84582031 11.94023437 45.41429687 12 46 C8.125 44.25 8.125 44.25 7 42 C6.86584528 39.3276379 6.95681459 36.67749512 7 34 C6.2575 34.66 5.515 35.32 4.75 36 C2 38 2 38 -2 38 C-1.18618568 32.91132196 0.83814007 28.60877672 2.94140625 23.9375 C3.99648326 21.00975862 4.37241847 19.07511251 4 16 C2.10413616 13.85410577 2.10413616 13.85410577 0 12 C-1.1671568 8.49852959 -1.13357453 5.67329964 -1 2 C-0.67 1.34 -0.34 0.68 0 0 Z " fill="#0E5C95" transform="translate(485,462)"/>
<path d="M0 0 C7.40843234 7.40843234 11.99503838 16.03194751 12.19311523 26.53759766 C12.16351253 39.51902775 10.08799766 49.15431972 0.8125 58.8125 C-9.15794519 67.8829581 -18.64388293 70.44650385 -32.04296875 70.14453125 C-42.90550691 69.53953543 -51.03566578 63.62724934 -58.1875 55.8125 C-60.49072592 52.94442375 -62.41850113 50.03523061 -64.1875 46.8125 C-64.52652344 46.2246875 -64.86554688 45.636875 -65.21484375 45.03125 C-68.97695358 37.12561829 -68.23724534 25.64679925 -66.0625 17.375 C-61.72284702 5.28886367 -53.35847823 -2.53302486 -42.0546875 -8.0234375 C-26.48070812 -14.34638826 -12.86574263 -8.82943122 0 0 Z M-55.4375 7.0625 C-62.08034669 14.92145839 -63.85435766 22.18979745 -63.5 32.421875 C-62.57428582 42.4658738 -58.64513595 50.63274775 -51.26953125 57.6328125 C-49.30964391 59.18976891 -47.3305856 60.52099832 -45.1875 61.8125 C-44.53394531 62.225 -43.88039063 62.6375 -43.20703125 63.0625 C-34.59328975 67.71682937 -24.06433332 66.94469759 -14.875 64.375 C-5.69330759 60.89314363 1.3270725 53.70725396 5.70703125 45.04296875 C9.2249542 36.64171896 9.69480748 25.49589423 6.55859375 16.8828125 C2.40771552 7.27018561 -3.81786299 0.40447761 -13.5 -3.625 C-29.9620519 -9.53649368 -43.59300362 -5.30647592 -55.4375 7.0625 Z " fill="#125A92" transform="translate(433.1875,694.1875)"/>
<path d="M0 0 C7.56421546 5.85507505 13.37708822 15.30581832 15.12109375 24.7265625 C16.54418506 37.33870924 13.07091751 48.42886186 5.25390625 58.3515625 C-1.74146992 66.14128542 -11.43344676 71.14799813 -21.9453125 71.96484375 C-35.28744412 72.24808453 -44.883946 68.69967378 -54.87890625 59.7265625 C-62.96699534 50.56453626 -65.78851906 39.60201635 -65.26171875 27.6015625 C-64.08337381 15.67382598 -58.11396835 6.90920123 -49.09765625 -0.66796875 C-33.55068317 -11.91762709 -15.46572059 -10.48196447 0 0 Z M-52.87890625 7.7265625 C-60.20725824 17.53807508 -62.31357489 27.64359507 -60.87890625 39.7265625 C-58.24812006 50.03830481 -52.75157909 57.53985091 -43.75390625 63.1015625 C-34.76073242 68.24462357 -25.89154924 69.25976146 -15.734375 67.0390625 C-6.03414873 63.78304249 2.38024532 57.56287336 7.34375 48.4921875 C9.31278756 44.28592806 10.74819224 40.38783138 11.12109375 35.7265625 C11.23324219 34.54320312 11.23324219 34.54320312 11.34765625 33.3359375 C11.89687983 23.21866098 8.4582037 15.11254402 2.05859375 7.3515625 C-3.86424229 1.16991345 -12.4261045 -3.87026064 -21.1015625 -4.51171875 C-34.25827275 -4.76601935 -43.40512218 -1.81255801 -52.87890625 7.7265625 Z " fill="#D4453F" transform="translate(539.87890625,692.2734375)"/>
<path d="M0 0 C8.66488588 4.82359975 16.36206183 13.36672982 20.14453125 22.51953125 C22.60271029 32.52061583 22.89832377 44.38721107 18.4375 53.8125 C16.76171875 56.55859375 16.76171875 56.55859375 15 59 C14.47019531 59.75410156 13.94039062 60.50820313 13.39453125 61.28515625 C9.17140054 66.65184255 4.0277403 69.91402769 -2 73 C-2.61230469 73.34160156 -3.22460938 73.68320312 -3.85546875 74.03515625 C-11.72762661 77.77139011 -23.12131598 77.04009988 -31.375 74.9375 C-42.30559098 71.01794465 -49.93990211 63.23541239 -55.375 53.25 C-57.90498071 47.51272092 -58.54415605 42.49917169 -58.5625 36.25 C-58.56491699 35.47043945 -58.56733398 34.69087891 -58.56982422 33.88769531 C-58.29742558 24.34365426 -55.18870586 17.15660772 -49 10 C-48.49726562 9.3915625 -47.99453125 8.783125 -47.4765625 8.15625 C-35.06875743 -5.64365028 -16.35795192 -7.06716362 0 0 Z M-48 14 C-55.06774945 23.34356477 -55.36344214 33.75877147 -54 45 C-52.01935933 54.26615517 -46.12036127 62.11498052 -38.375 67.4375 C-29.29261033 73.19186602 -19.49340051 73.2576836 -9 72 C-4.46676187 70.62485454 -0.85954153 68.72291279 3 66 C3.69351563 65.52046875 4.38703125 65.0409375 5.1015625 64.546875 C9.54719579 61.1038739 12.41864287 56.95469282 15 52 C15.32097656 51.40703125 15.64195312 50.8140625 15.97265625 50.203125 C19.63152794 42.23869732 19.11707273 32.45016121 16.5 24.25 C11.70839472 12.89706763 3.4966258 6.17797659 -7.359375 0.83984375 C-22.60122706 -4.00778671 -37.94120641 2.35391451 -48 14 Z " fill="#8FC67D" transform="translate(642,688)"/>
<path d="M0 0 C0.66 0.33 1.32 0.66 2 1 C2 1.66 2 2.32 2 3 C2.99 2.67 3.98 2.34 5 2 C5.350625 2.45375 5.70125 2.9075 6.0625 3.375 C9.4859103 6.24624735 13.60825923 7 18 7 C20.44343559 14.33030676 18.64274156 21.1806428 16.65625 28.36328125 C15.87923965 31.0323381 15.87923965 31.0323381 16 34 C17.48185125 32.37744772 18.96040256 30.75188112 20.4375 29.125 C21.26121094 28.22007812 22.08492187 27.31515625 22.93359375 26.3828125 C25.00907942 24.18862073 25.00907942 24.18862073 26 22 C26.99 22 27.98 22 29 22 C30.6875 24.5 30.6875 24.5 32 27 C28.96493407 30.08471467 25.92319227 33.16264494 22.87524414 36.23461914 C21.84053131 37.27935419 20.80762504 38.32588183 19.77661133 39.37426758 C18.28945226 40.88584162 16.79579298 42.39072818 15.30078125 43.89453125 C14.40528564 44.80050049 13.50979004 45.70646973 12.5871582 46.63989258 C10.17372508 48.84152115 7.85998408 50.44267218 5 52 C0.86501237 45.2806451 0.22585499 39.82992377 1 32 C2 28.625 2 28.625 3 26 C3.83349951 22.95659873 3.83349951 22.95659873 3 20 C1.07853105 18.45409089 -0.86930473 17.31547012 -3.0546875 16.17578125 C-5 15 -5 15 -7 12 C-6.02296079 10.1863523 -5.04330895 8.37411183 -4.0625 6.5625 C-3.51722656 5.55316406 -2.97195313 4.54382813 -2.41015625 3.50390625 C-1 1 -1 1 0 0 Z " fill="#F0F1F1" transform="translate(528,457)"/>
<path d="M0 0 C3.16667025 0.77191386 4.10252792 1.83526808 6.03515625 4.49609375 C6.66009046 7.99998247 6.61926931 11.47562631 6.6015625 15.02734375 C6.60776108 16.05541138 6.61395966 17.083479 6.62034607 18.1427002 C6.62744494 20.31468763 6.6242691 22.48672948 6.61157227 24.65869141 C6.59770495 27.98441503 6.63177992 31.30732649 6.66992188 34.6328125 C6.67087305 36.74349027 6.66901436 38.85417157 6.6640625 40.96484375 C6.67732071 41.95971802 6.69057892 42.95459229 6.70423889 43.97961426 C6.61142196 50.85037894 6.61142196 50.85037894 3.68725586 54.12695312 C0.46720026 55.78929979 -1.38668639 56.0290108 -4.96484375 55.49609375 C-7.11708069 54.26818848 -7.11708069 54.26818848 -8.96484375 52.49609375 C-9.46604919 50.29528809 -9.46604919 50.29528809 -9.46655273 47.70507812 C-9.47593369 46.73397095 -9.48531464 45.76286377 -9.49497986 44.7623291 C-9.48374588 43.71540894 -9.4725119 42.66848877 -9.4609375 41.58984375 C-9.46239273 40.51359741 -9.46384796 39.43735107 -9.46534729 38.32849121 C-9.46368667 36.05213719 -9.45210728 33.77577213 -9.43139648 31.49951172 C-9.40245581 28.00960739 -9.41078196 24.5212225 -9.42382812 21.03125 C-9.41759055 18.82160718 -9.40919947 16.61196917 -9.3984375 14.40234375 C-9.40137314 13.35542358 -9.40430878 12.30850342 -9.40733337 11.2298584 C-9.3946492 10.25875122 -9.38196503 9.28764404 -9.36889648 8.28710938 C-9.3634935 7.43234009 -9.35809052 6.5775708 -9.3525238 5.69689941 C-8.40825152 0.33639718 -4.92377919 0.14230576 0 0 Z " fill="#D93F38" transform="translate(660.96484375,577.50390625)"/>
<path d="M0 0 C0.66 0 1.32 0 2 0 C6.05164532 6.15128339 4.8946119 15.96868709 4 23 C-0.31563934 41.51117348 -11.18661438 57.46463613 -23 72 C-24.32 71.34 -25.64 70.68 -27 70 C-27 69.34 -27 68.68 -27 68 C-27.66 67.67 -28.32 67.34 -29 67 C-28.52949219 66.28714844 -28.05898438 65.57429688 -27.57421875 64.83984375 C-23.04218347 57.86820356 -19.56560354 51.67752023 -17.8125 43.5 C-16.40698232 37.50010196 -13.89848896 32.56064907 -10.8684082 27.25195312 C-8.77794085 23.58011395 -7.19642535 20.0542082 -6 16 C-4.02 15.67 -2.04 15.34 0 15 C0 10.05 0 5.1 0 0 Z " fill="#F2F1EF" transform="translate(584,411)"/>
<path d="M0 0 C2.38125464 2.38125464 3.00186241 4.33857567 4.125 7.5 C4.65480469 8.96953125 4.65480469 8.96953125 5.1953125 10.46875 C6 13 6 13 6 15 C11.28 15 16.56 15 22 15 C16.703125 20.296875 16.703125 20.296875 13.625 22.375 C12.75875 23.24125 11.8925 24.1075 11 25 C10.9384058 28.41136476 10.9384058 28.41136476 12 32 C12.20723248 33.4765314 12.39497358 34.95593826 12.5625 36.4375 C12.706875 37.613125 12.85125 38.78875 13 40 C12.40832031 39.66226563 11.81664062 39.32453125 11.20703125 38.9765625 C10.02173828 38.30753906 10.02173828 38.30753906 8.8125 37.625 C8.03519531 37.18414062 7.25789063 36.74328125 6.45703125 36.2890625 C5.24080078 35.65097656 5.24080078 35.65097656 4 35 C3.195625 34.5359375 2.39125 34.071875 1.5625 33.59375 C-1.14725738 32.66895041 -1.14725738 32.66895041 -3.89453125 34.5546875 C-4.85746094 35.32039063 -5.82039063 36.08609375 -6.8125 36.875 C-7.78832031 37.63554687 -8.76414062 38.39609375 -9.76953125 39.1796875 C-10.50558594 39.78039062 -11.24164063 40.38109375 -12 41 C-13.20239841 37.39280478 -12.6460737 36.08301704 -11.5625 32.5 C-10.65192483 29.46202722 -10 27.18192709 -10 24 C-12.45773092 21.92312991 -12.45773092 21.92312991 -15.5 19.9375 C-17.36619619 18.67216243 -19.20886208 17.36952266 -21 16 C-21 15.34 -21 14.68 -21 14 C-15.72 14 -10.44 14 -5 14 C-4.54625 12.246875 -4.0925 10.49375 -3.625 8.6875 C-2.72623341 5.2149927 -2.00993705 3.01490557 0 0 Z " fill="#EBEFF1" transform="translate(427,326)"/>
<path d="M0 0 C2.171875 0.33203125 2.171875 0.33203125 4 1 C3.41794215 4.76625665 1.78676696 6.71527837 -0.75 9.5 C-1.42546875 10.2528125 -2.1009375 11.005625 -2.796875 11.78125 C-5 14 -5 14 -7.74609375 15.484375 C-11.61926927 19.80729533 -10.51360425 25.18714692 -10.3125 30.75 C-10.28994141 31.92433594 -10.26738281 33.09867188 -10.24414062 34.30859375 C-10.1852296 37.20701637 -10.10301631 40.10286427 -10 43 C-11.65 43 -13.3 43 -15 43 C-16.98598493 37.04204521 -17.57045059 31.25107435 -18 25 C-18.66 25.33 -19.32 25.66 -20 26 C-20.31241455 28.71446979 -20.51336592 31.33909361 -20.625 34.0625 C-20.66367187 34.82111328 -20.70234375 35.57972656 -20.7421875 36.36132812 C-20.83673562 38.24047195 -20.91946756 40.12020336 -21 42 C-22.65614657 42.38218767 -24.32457024 42.71395102 -26 43 C-27 42 -27 42 -27.04663086 39.75024414 C-27.01964111 38.77176514 -26.99265137 37.79328613 -26.96484375 36.78515625 C-26.16550737 24.44705923 -26.16550737 24.44705923 -30.25390625 13.328125 C-32.9029372 10.79011108 -32.9029372 10.79011108 -35.75 8.89453125 C-38 7 -38 7 -38.8125 3.76171875 C-38.874375 2.85035156 -38.93625 1.93898438 -39 1 C-35.2916813 1.42788293 -33.31697896 3.34948194 -30.55859375 5.72265625 C-26.08455285 9.38935142 -21.97079941 10.56683342 -16.30078125 10.34765625 C-10.65198107 9.4941024 -6.58587116 6.81178253 -2.75 2.6875 C-1.8425 1.800625 -0.935 0.91375 0 0 Z " fill="#0F5B91" transform="translate(641,708)"/>
<path d="M0 0 C4.60319521 1.8012503 6.83701163 4.59391257 9 9 C9.82142835 14.10281247 9.61300723 17.83740008 7.1875 22.4375 C6.465625 23.283125 5.74375 24.12875 5 25 C4.58105469 25.53882813 4.16210938 26.07765625 3.73046875 26.6328125 C0.54512761 29.14944772 -3.21696827 28.45418921 -7.109375 28.35546875 C-10.83714003 27.8970544 -12.59892163 26.88129404 -15 24 C-18.02880426 19.013954 -17.91274539 13.63458573 -17 8 C-13.38900406 0.38323686 -8.03932016 -1.59966064 0 0 Z " fill="#F4F3F2" transform="translate(776,591)"/>
<path d="M0 0 C3.24280821 1.60225366 5.19479398 3.93859207 7.375 6.8125 C8.8619509 12.01682814 8.53436055 16.42694676 6.375 21.3125 C4.24306151 25.10675416 2.24492145 26.69387032 -2 28 C-5.8766775 28.53313836 -9.13136394 28.34745442 -12.8125 26.875 C-16.35903273 23.8351148 -17.75194447 21.03284529 -18.3203125 16.375 C-18.56339677 10.41133255 -18.14388929 6.61747664 -14 2 C-9.5357313 -0.97617913 -5.23275258 -0.74006072 0 0 Z " fill="#F0F2F3" transform="translate(324,591)"/>
<path d="M0 0 C6.84156726 2.15382673 9.73519261 5.30830347 13.203125 11.421875 C14.9521503 15.363012 15.04679407 17.80780422 14.375 22.0625 C13.31640625 23.80859375 13.31640625 23.80859375 11.375 25.0625 C8.73490353 25.09216401 6.35606142 24.97307529 3.75 24.6875 C-0.95739419 24.25426527 -5.24232894 23.95065683 -9.9375 24.75 C-13.625 25.0625 -13.625 25.0625 -15.6875 23.5 C-16.95024763 20.21685615 -17.22315435 18.58496449 -16.625 15.0625 C-13.24566353 8.3877113 -8.06400799 0.13903462 0 0 Z " fill="#D6423B" transform="translate(515.625,721.9375)"/>
<path d="M0 0 C3.07469523 1.70251719 5.40613254 3.81226508 7 7 C7.58170608 14.47268579 7.67397007 20.61701817 2.6640625 26.59375 C-0.40300644 29.18563925 -4.10586172 29.21966934 -8 29 C-12.55625741 26.80624643 -14.75035559 24.46083336 -17 20 C-17.85696728 15.12392262 -18.17781317 10.12150445 -15.72265625 5.69921875 C-11.13135488 0.27721738 -7.06907204 -1.09119904 0 0 Z " fill="#F3F0EF" transform="translate(710,591)"/>
<path d="M0 0 C3.3 0 6.6 0 10 0 C17.71334586 14.6287594 17.71334586 14.6287594 17 22 C15.68 22 14.36 22 13 22 C13 25.96 13 29.92 13 34 C10.525 34.495 10.525 34.495 8 35 C7 34 7 34 6.90234375 31.27734375 C6.91394531 30.17519531 6.92554688 29.07304688 6.9375 27.9375 C6.94652344 26.83277344 6.95554687 25.72804688 6.96484375 24.58984375 C6.97644531 23.73519531 6.98804688 22.88054688 7 22 C6.01 22 5.02 22 4 22 C4.02320313 22.75925781 4.04640625 23.51851562 4.0703125 24.30078125 C4.09738281 25.79158203 4.09738281 25.79158203 4.125 27.3125 C4.14820313 28.29863281 4.17140625 29.28476562 4.1953125 30.30078125 C4 33 4 33 2 36 C-1.875 35.125 -1.875 35.125 -3 34 C-3.07244053 31.98035801 -3.08377188 29.95832876 -3.0625 27.9375 C-3.05347656 26.83277344 -3.04445313 25.72804688 -3.03515625 24.58984375 C-3.02355469 23.73519531 -3.01195312 22.88054688 -3 22 C-3.99 22 -4.98 22 -6 22 C-5.28551391 14.14065296 -3.04549658 7.26233801 0 0 Z " fill="#0E5B93" transform="translate(400,715)"/>
<path d="M0 0 C3.89227152 2.13693338 6.65661267 4.23020299 9 8 C9.73942261 12.45828338 9.52155903 16.66712693 7.875 20.875 C4.47174483 24.73202252 1.60267814 26.80317988 -3.5625 27.4375 C-7.34865365 26.9556259 -9.08255709 26.44434406 -12 24 C-15.39453687 19.22929953 -16.87159882 15.99224187 -16 10 C-12.67573978 3.47933573 -7.65975538 -1.2766259 0 0 Z " fill="#DB473F" transform="translate(557,406)"/>
<path d="M0 0 C3 2.0625 3 2.0625 5 5 C5.7878128 9.4117517 5.52975133 11.22192774 3 14.9375 C-1.15080314 17.79117716 -3.0301078 17.7099846 -8 17 C-10.5 15.5625 -10.5 15.5625 -12 13 C-12.76004105 8.68518361 -12.73570183 5.25682396 -10.5 1.4375 C-6.99753422 -0.57641782 -3.87856287 -0.87555677 0 0 Z " fill="#D9413A" transform="translate(663,554)"/>
<path d="M0 0 C4.12071155 0.73584135 5.82805171 1.38627481 8.5 4.625 C9.16556429 9.28395 9.13649485 11.42838968 6.9375 15.5625 C3.71052015 18.29302141 1.70834731 18.69883065 -2.5 18.625 C-5.30189446 16.85858828 -7.01524911 15.59450178 -8.5 12.625 C-9.06406011 8.4885592 -8.64638597 6.86454067 -6.4375 3.25 C-3.5 0.625 -3.5 0.625 0 0 Z " fill="#0E5C91" transform="translate(622.5,697.375)"/>
<path d="M0 0 C2.64603773 0.9261132 3.85498043 1.62392059 5.5 3.875 C5.5 4.865 5.5 5.855 5.5 6.875 C7.48 6.875 9.46 6.875 11.5 6.875 C11.62375 6.25625 11.7475 5.6375 11.875 5 C12.5 2.875 12.5 2.875 14.5 0.875 C17.79714793 1.20471479 19.1226839 1.4976839 21.5 3.875 C21.75 6.875 21.75 6.875 21.5 9.875 C19.5 11.875 19.5 11.875 16.6875 12.1875 C13.17774407 11.84340628 11.35135899 10.88772399 8.5 8.875 C8.5 11.185 8.5 13.495 8.5 15.875 C9.82 15.875 11.14 15.875 12.5 15.875 C12.5 16.535 12.5 17.195 12.5 17.875 C9.625 18.0625 9.625 18.0625 6.5 17.875 C5.84 16.885 5.18 15.895 4.5 14.875 C5.375 11.6875 5.375 11.6875 6.5 8.875 C5.84 8.875 5.18 8.875 4.5 8.875 C4.17 9.865 3.84 10.855 3.5 11.875 C-3.25 11.125 -3.25 11.125 -5.5 8.875 C-5.83661952 5.7107765 -5.99943411 3.68986618 -4.3125 0.9375 C-2.5 -0.125 -2.5 -0.125 0 0 Z " fill="#D9E3E9" transform="translate(473.5,399.125)"/>
<path d="M0 0 C0.99 0 1.98 0 3 0 C3 0.99 3 1.98 3 3 C4.32 3.33 5.64 3.66 7 4 C3.18716449 8.96711189 -0.98985387 12.58356157 -6 16.3125 C-6.74894531 16.87718994 -7.49789062 17.44187988 -8.26953125 18.02368164 C-14.72639269 22.8628903 -21.30314309 27.49927835 -28 32 C-28.92425781 32.62132812 -29.84851563 33.24265625 -30.80078125 33.8828125 C-32.86291662 35.26184549 -34.92851548 36.63506834 -37 38 C-37.66 37.67 -38.32 37.34 -39 37 C-38.32195313 36.45472656 -37.64390625 35.90945313 -36.9453125 35.34765625 C-27.32153078 27.54999377 -18.27618912 19.3602108 -9.5 10.625 C-8.79270752 9.92238037 -8.08541504 9.21976074 -7.35668945 8.49584961 C-6.36028442 7.49630249 -6.36028442 7.49630249 -5.34375 6.4765625 C-4.44946289 5.5805835 -4.44946289 5.5805835 -3.53710938 4.66650391 C-1.80217394 2.8726756 -1.80217394 2.8726756 0 0 Z " fill="#D85147" transform="translate(563,479)"/>
<path d="M0 0 C0.66 0.33 1.32 0.66 2 1 C2 1.66 2 2.32 2 3 C2.99 2.67 3.98 2.34 5 2 C5.350625 2.45375 5.70125 2.9075 6.0625 3.375 C8.77096206 5.64661334 11.60795328 6.16798854 15 7 C14.6875 9.375 14.6875 9.375 14 12 C11 14 11 14 8.375 14.5 C7.59125 14.665 6.8075 14.83 6 15 C5.67 15.66 5.34 16.32 5 17 C1.53734736 16.6852134 -0.58585959 16.29733158 -3.4375 14.25 C-5 12 -5 12 -4.9375 9.625 C-2.33333333 2.33333333 -2.33333333 2.33333333 0 0 Z " fill="#0F5B93" transform="translate(528,457)"/>
<path d="M0 0 C2.98055402 1.29589305 4.49588998 2.25583759 6.3125 4.9375 C7 7 7 7 7 11 C-0.26 11 -7.52 11 -15 11 C-13.81627402 3.8976441 -13.81627402 3.8976441 -9.8125 0.9140625 C-6.37377932 -0.82011991 -3.81012945 -0.48382596 0 0 Z " fill="#E7ECED" transform="translate(463,589)"/>
<path d="M0 0 C2.4375 1.5625 2.4375 1.5625 4 4 C4.56288002 7.94016013 4.60396028 10.05782196 2.4375 13.4375 C-0.94217804 15.60396028 -3.05983987 15.56288002 -7 15 C-9.4375 13.5 -9.4375 13.5 -11 11 C-11.57853498 8.03575377 -11.39353376 6.09907833 -11 3 C-8.06403859 -0.7580306 -4.50318499 -0.56289812 0 0 Z " fill="#0F5F98" transform="translate(409,697)"/>
<path d="M0 0 C2.9375 0.5625 2.9375 0.5625 4.8125 2.125 C6.38021513 5.52171611 6.3923598 7.85864162 5.9375 11.5625 C4.3125 14.5 4.3125 14.5 1.9375 16.5625 C-1.125 17.125 -1.125 17.125 -4.0625 16.5625 C-6.83331437 14.25348803 -7.04379943 12.70943304 -7.5 9.125 C-6.85947405 3.90928866 -5.36882833 0.98611133 0 0 Z " fill="#D6463D" transform="translate(523.0625,702.4375)"/>
<path d="M0 0 C2.3125 1.4375 2.3125 1.4375 4 4 C4.69000365 8.71928419 4.67770289 11.98344566 2 16 C-0.875 16.5 -0.875 16.5 -4 16 C-6.52190705 13.8762888 -7.77797468 12.28225858 -8.34765625 8.9921875 C-8.47539899 5.98190215 -8.36844729 3.6205428 -6.8125 1 C-4.28755792 -0.39307149 -2.84441042 -0.48563105 0 0 Z " fill="#D54840" transform="translate(509,703)"/>
<path d="M0 0 C2.4375 0.5 2.4375 0.5 4.25 1.625 C6.02455868 4.42693476 5.89333783 6.24401548 5.4375 9.5 C3.8125 12.375 3.8125 12.375 1.4375 14.5 C-1.6875 14.9375 -1.6875 14.9375 -4.5625 14.5 C-6.5625 12.5 -6.5625 12.5 -6.9375 9.1875 C-6.44428456 4.3375482 -5.09386648 0.99392517 0 0 Z " fill="#D64940" transform="translate(533.5625,715.5)"/>
<path d="M0 0 C3.33918282 0.62124332 4.72396228 2.09516378 6.7421875 4.7734375 C8.20738739 7.44954639 8.15894431 9.53663577 7.6875 12.5 C5.6875 14.5 5.6875 14.5 2.75 14.8125 C-0.3125 14.5 -0.3125 14.5 -2.125 13.125 C-4.70129749 9.59954028 -4.5437005 6.81574274 -4.3125 2.5 C-2.3125 0.5 -2.3125 0.5 0 0 Z " fill="#D44840" transform="translate(495.3125,715.5)"/>
<path d="M0 0 C0.70125 0.7425 1.4025 1.485 2.125 2.25 C7.78853427 7.68585456 7.78853427 7.68585456 15.19921875 9.28515625 C16.69618277 9.2312708 18.1925289 9.15666125 19.6875 9.0625 C27.48518865 8.61862138 27.48518865 8.61862138 30.01953125 10.49609375 C30.34308594 10.99238281 30.66664063 11.48867188 31 12 C24.7828292 14.52290989 18.71911178 16.32697192 12 15 C8.69096166 13.35066741 5.88053801 11.30330958 3 9 C1.66832733 7.9977896 0.33548618 6.99712309 -1 6 C-0.34 5.67 0.32 5.34 1 5 C0.67 3.35 0.34 1.7 0 0 Z " fill="#E0E7EA" transform="translate(462,417)"/>
<path d="M0 0 C0.33 0 0.66 0 1 0 C1.103125 0.94875 1.20625 1.8975 1.3125 2.875 C1.68539295 6.29107501 1.68539295 6.29107501 5 8 C4.195625 8.45375 3.39125 8.9075 2.5625 9.375 C-0.08856572 10.74725665 -0.08856572 10.74725665 -1 13 C-1.04022391 15.3329866 -1.04320247 17.66706666 -1 20 C1.475 20.99 1.475 20.99 4 22 C3.34 22.33 2.68 22.66 2 23 C1.34444881 25.52733235 1.34444881 25.52733235 1 28 C-1.03978145 25.53819481 -2.83807585 23.34941526 -4.1875 20.4375 C-6.94364479 16.73096046 -10.76162931 15.59049969 -15 14 C-12.92446352 13.4465236 -11.15634036 13 -9 13 C-8.67 12.34 -8.34 11.68 -8 11 C-7.195625 10.690625 -6.39125 10.38125 -5.5625 10.0625 C-2.70136041 9.15452711 -2.70136041 9.15452711 -1 6 C-0.60986284 4.0103005 -0.26797351 2.00980131 0 0 Z " fill="#E9E0DE" transform="translate(529,708)"/>
<path d="M0 0 C3.29597873 1.58401935 4.2337137 4.08810026 5.92578125 7.265625 C6.55097656 8.40515625 7.17617188 9.5446875 7.8203125 10.71875 C9.17113957 14.16315498 9.27214795 15.57139547 8.11328125 19.015625 C6.79328125 19.015625 5.47328125 19.015625 4.11328125 19.015625 C3.15240989 17.12107676 2.19469156 15.22492919 1.23828125 13.328125 C0.70460938 12.27238281 0.1709375 11.21664062 -0.37890625 10.12890625 C-1.6735998 7.45566595 -2.82695129 4.7885117 -3.88671875 2.015625 C-1.88671875 0.015625 -1.88671875 0.015625 0 0 Z " fill="#0B558B" transform="translate(414.88671875,710.984375)"/>
<path d="M0 0 C7.59869571 -0.12679156 15.19711858 -0.21434844 22.79663086 -0.2746582 C25.3816955 -0.29980001 27.96668907 -0.33391815 30.55151367 -0.37719727 C34.26759374 -0.43785922 37.98273386 -0.46621419 41.69921875 -0.48828125 C43.43228523 -0.52699089 43.43228523 -0.52699089 45.20036316 -0.56648254 C54.14427356 -0.56960791 54.14427356 -0.56960791 57.27270508 2.30004883 C59 5 59 5 58.9375 8.6875 C58 12 58 12 56 14 C56 13.34 56 12.68 56 12 C55.01 11.67 54.02 11.34 53 11 C53 7.7 53 4.4 53 1 C35.51 1 18.02 1 0 1 C0 0.67 0 0.34 0 0 Z " fill="#2E6E9E" transform="translate(379,560)"/>
<path d="M0 0 C2 0.3125 2 0.3125 4 1 C4.33 1.66 4.66 2.32 5 3 C4.28735352 4.69580078 4.28735352 4.69580078 3.12890625 6.6953125 C2.71962891 7.41074219 2.31035156 8.12617187 1.88867188 8.86328125 C1.45103516 9.60964844 1.01339844 10.35601563 0.5625 11.125 C0.12873047 11.87910156 -0.30503906 12.63320313 -0.75195312 13.41015625 C-1.82748966 15.27757134 -2.91284139 17.13932697 -4 19 C-5.32 18.67 -6.64 18.34 -8 18 C-7.45960463 13.44041411 -6.26620958 10.16970963 -4 6.1875 C-3.46375 5.23230469 -2.9275 4.27710938 -2.375 3.29296875 C-1 1 -1 1 0 0 Z " fill="#156297" transform="translate(395,711)"/>
<path d="M0 0 C-0.33 1.65 -0.66 3.3 -1 5 C-7.69675136 6.03026944 -14.2314676 6.10152799 -21 6 C-21 5.34 -21 4.68 -21 4 C-28.26 3.67 -35.52 3.34 -43 3 C-43 2.67 -43 2.34 -43 2 C-41.95545654 1.97494385 -40.91091309 1.9498877 -39.8347168 1.92407227 C-35.96007984 1.82991461 -32.08561866 1.72971428 -28.21118164 1.62768555 C-26.53414013 1.58436833 -24.85705542 1.54269093 -23.17993164 1.50268555 C-20.76956159 1.44490515 -18.3594083 1.3812332 -15.94921875 1.31640625 C-15.19912033 1.29969376 -14.44902191 1.28298126 -13.67619324 1.26576233 C-8.9434232 1.1310069 -4.72215995 -0.12762594 0 0 Z " fill="#E1E8EB" transform="translate(535,369)"/>
<path d="M0 0 C0.33 0 0.66 0 1 0 C1.45572917 2.01822917 1.91145833 4.03645833 2.3671875 6.0546875 C2.90474428 8.20719964 2.90474428 8.20719964 5 10 C8 10.33333333 8 10.33333333 11 10 C11.66 9.34 12.32 8.68 13 8 C12.6875 9.9375 12.6875 9.9375 12 12 C11.01 12.33 10.02 12.66 9 13 C9.99 13.66 10.98 14.32 12 15 C11.52949219 15.39832031 11.05898438 15.79664063 10.57421875 16.20703125 C9.95160156 16.73683594 9.32898438 17.26664063 8.6875 17.8125 C8.07261719 18.33457031 7.45773437 18.85664062 6.82421875 19.39453125 C4.98141636 20.95105824 4.98141636 20.95105824 3.46875 22.71875 C2.74171875 23.35296875 2.74171875 23.35296875 2 24 C-1.1875 23.6875 -1.1875 23.6875 -4 23 C-4 22.67 -4 22.34 -4 22 C-2.02 21.34 -0.04 20.68 2 20 C2.38150593 15.9941877 2.31831686 14.43066399 -0.125 11.125 C-2 8 -2 8 -1.8203125 5.84375 C-1.31239725 3.86775094 -0.66509691 1.92878104 0 0 Z " fill="#E9DDDA" transform="translate(500,708)"/>
<path d="M0 0 C4.01898734 1.40664557 4.01898734 1.40664557 5.5 3.875 C5.05555556 10.31944444 5.05555556 10.31944444 3.5 11.875 C-3.1 11.275 -3.1 11.275 -5.5 8.875 C-5.83661952 5.7107765 -5.99943411 3.68986618 -4.3125 0.9375 C-2.5 -0.125 -2.5 -0.125 0 0 Z " fill="#CFDBE2" transform="translate(473.5,399.125)"/>
<path d="M0 0 C0.66 0.33 1.32 0.66 2 1 C1.67 1.33 1.34 1.66 1 2 C0.58546287 8.3149985 0.58546287 8.3149985 3 14 C0.525 15.485 0.525 15.485 -2 17 C-5.3 14.03 -8.6 11.06 -12 8 C-10 6 -10 6 -7.6875 5.6875 C-4.05568691 4.75843153 -2.46085615 2.74209685 0 0 Z " fill="#EBEEF0" transform="translate(492,494)"/>
<path d="M0 0 C0.33 0 0.66 0 1 0 C1.02578125 0.96679688 1.0515625 1.93359375 1.078125 2.9296875 C1.5494263 13.74819451 3.4603072 22.12470263 10 31 C8.35 31.33 6.7 31.66 5 32 C3.65144106 29.46543163 2.32124783 26.92375848 1 24.375 C0.6184375 23.66214844 0.236875 22.94929687 -0.15625 22.21484375 C-2.34186878 17.9606929 -3.49539983 14.9075546 -3 10 C-2.01 9.67 -1.02 9.34 0 9 C0 6.03 0 3.06 0 0 Z " fill="#9BCA8B" transform="translate(587,718)"/>
<path d="M0 0 C1.32 1.32 2.64 2.64 4 4 C-13.34042553 15.95744681 -13.34042553 15.95744681 -21 21 C-21.66 20.67 -22.32 20.34 -23 20 C-22.32195313 19.45472656 -21.64390625 18.90945313 -20.9453125 18.34765625 C-13.73154263 12.50270421 -6.57150436 6.57150436 0 0 Z " fill="#D85C51" transform="translate(547,496)"/>
<path d="M0 0 C0.66 0.33 1.32 0.66 2 1 C2 4.78937105 0.83470473 5.96954779 -1.375 9 C-2.00148438 9.86625 -2.62796875 10.7325 -3.2734375 11.625 C-3.84320313 12.40875 -4.41296875 13.1925 -5 14 C-5.99 15.485 -5.99 15.485 -7 17 C-7.66 17 -8.32 17 -9 17 C-9.47357886 13.84280757 -9.41726456 11.70338883 -7.76953125 8.92578125 C-5.37514981 5.72736062 -2.868767 2.78261784 0 0 Z " fill="#D4443E" transform="translate(488,694)"/>
<path d="M0 0 C0.33 0.66 0.66 1.32 1 2 C1.66 2.33 2.32 2.66 3 3 C2.01 3.66 1.02 4.32 0 5 C1.36591169 8.54243452 2.90931484 11.92627929 4.625 15.3125 C5.07101562 16.19550781 5.51703125 17.07851563 5.9765625 17.98828125 C6.31429688 18.65214844 6.65203125 19.31601562 7 20 C6.01 21.32 5.02 22.64 4 24 C2.02 18.72 0.04 13.44 -2 8 C-5.63 7.67 -9.26 7.34 -13 7 C-13 6.67 -13 6.34 -13 6 C-12.30132812 5.97421875 -11.60265625 5.9484375 -10.8828125 5.921875 C-9.97273438 5.86515625 -9.06265625 5.8084375 -8.125 5.75 C-7.22007812 5.70359375 -6.31515625 5.6571875 -5.3828125 5.609375 C-2.84009319 5.24920558 -2.84009319 5.24920558 -1.7421875 3.015625 C-1.49726563 2.35046875 -1.25234375 1.6853125 -1 1 C-0.67 0.67 -0.34 0.34 0 0 Z " fill="#DAE1E7" transform="translate(412,708)"/>
<path d="M0 0 C0 0.99 0 1.98 0 3 C1.32 3.66 2.64 4.32 4 5 C-2.27 5 -8.54 5 -15 5 C-14.67 4.34 -14.34 3.68 -14 3 C-14.66 2.34 -15.32 1.68 -16 1 C-10.59255982 0.22750855 -5.46137814 -0.09752461 0 0 Z " fill="#06538C" transform="translate(512,475)"/>
<path d="M0 0 C5.85272256 0.45020943 10.08220119 3.03839227 15 6 C14.34 7.32 13.68 8.64 13 10 C11.22769249 9.2116391 9.45720466 8.41918653 7.6875 7.625 C6.70136719 7.18414063 5.71523438 6.74328125 4.69921875 6.2890625 C2 5 2 5 -1 3 C-0.67 2.01 -0.34 1.02 0 0 Z " fill="#D84D46" transform="translate(523,685)"/>
<path d="M0 0 C4.28133304 1.34577308 6.18609797 3.02013447 8.8125 6.625 C9.71935547 7.85089844 9.71935547 7.85089844 10.64453125 9.1015625 C11.09183594 9.72804688 11.53914062 10.35453125 12 11 C11.67 11.66 11.34 12.32 11 13 C8 13 8 13 5.73828125 10.8125 C4.93777344 9.884375 4.13726563 8.95625 3.3125 8 C2.50425781 7.071875 1.69601562 6.14375 0.86328125 5.1875 C-0.05904297 4.1046875 -0.05904297 4.1046875 -1 3 C-0.67 2.01 -0.34 1.02 0 0 Z " fill="#D63F3A" transform="translate(537,692)"/>
<path d="M0 0 C2.29160319 -0.02692484 4.58329546 -0.04636124 6.875 -0.0625 C8.15117188 -0.07410156 9.42734375 -0.08570313 10.7421875 -0.09765625 C14 0 14 0 16 1 C16 1.99 16 2.98 16 4 C10.39 4 4.78 4 -1 4 C-0.67 2.68 -0.34 1.36 0 0 Z " fill="#D53E39" transform="translate(507,684)"/>
<path d="M0 0 C0.66 0 1.32 0 2 0 C2.09796875 0.67546875 2.1959375 1.3509375 2.296875 2.046875 C3.37079086 8.95967405 3.37079086 8.95967405 8 14 C7.34 16.31 6.68 18.62 6 21 C5.67 21 5.34 21 5 21 C4.731875 20.071875 4.46375 19.14375 4.1875 18.1875 C3.053317 15.14311405 2.30315842 14.10288378 0 12 C-1.1671568 8.49852959 -1.13357453 5.67329964 -1 2 C-0.67 1.34 -0.34 0.68 0 0 Z " fill="#1F679A" transform="translate(485,462)"/>
<path d="M0 0 C0.66 0.99 1.32 1.98 2 3 C0.59308516 6.3287315 -1.00691581 8.13167372 -3.875 10.3125 C-4.55304687 10.84488281 -5.23109375 11.37726563 -5.9296875 11.92578125 C-8 13 -8 13 -10.2578125 12.66796875 C-10.83273437 12.44753906 -11.40765625 12.22710937 -12 12 C-12 11.34 -12 10.68 -12 10 C-11.319375 9.608125 -10.63875 9.21625 -9.9375 8.8125 C-6.04320494 6.40963709 -3.13837888 3.30117663 0 0 Z " fill="#D5443C" transform="translate(560,486)"/>
<path d="M0 0 C1.12921875 0.309375 1.12921875 0.309375 2.28125 0.625 C4.52832241 0.8448223 6.77896238 1.02983987 9.03125 1.1875 C10.20171875 1.27128906 11.3721875 1.35507812 12.578125 1.44140625 C13.47015625 1.50199219 14.3621875 1.56257812 15.28125 1.625 C15.28125 1.955 15.28125 2.285 15.28125 2.625 C12.64125 2.955 10.00125 3.285 7.28125 3.625 C10.58125 3.955 13.88125 4.285 17.28125 4.625 C17.28125 4.955 17.28125 5.285 17.28125 5.625 C8.92384099 5.94598157 2.05854519 5.84319111 -5.71875 2.625 C-2.23306911 -0.48721508 -2.23306911 -0.48721508 0 0 Z " fill="#D7524D" transform="translate(503.71875,758.375)"/>
<path d="M0 0 C0.66 0.66 1.32 1.32 2 2 C-4.48343811 4.63096039 -10.02330843 5.39325819 -17 5 C-17 4.67 -17 4.34 -17 4 C-14.36 4 -11.72 4 -9 4 C-9 3.34 -9 2.68 -9 2 C-10.65 2 -12.3 2 -14 2 C-14.33 1.34 -14.66 0.68 -15 0 C-4.02840542 -1.38476436 -4.02840542 -1.38476436 0 0 Z " fill="#D1DEE5" transform="translate(491,427)"/>
<path d="M0 0 C0.33 1.32 0.66 2.64 1 4 C1.66 4 2.32 4 3 4 C2.34 9.61 1.68 15.22 1 21 C0.67 21 0.34 21 0 21 C-0.33 19.02 -0.66 17.04 -1 15 C-1.99 15.495 -1.99 15.495 -3 16 C-3.37851209 10.06997733 -2.10575375 5.52760359 0 0 Z " fill="#D4473E" transform="translate(478,707)"/>
<path d="M0 0 C0.77601563 0.15339844 1.55203125 0.30679687 2.3515625 0.46484375 C7.02199468 1.14990714 11.66255085 1.35746477 16.375 1.5625 C17.30183594 1.60568359 18.22867187 1.64886719 19.18359375 1.69335938 C21.45560294 1.79876186 23.72770925 1.90088606 26 2 C26 2.33 26 2.66 26 3 C19.565 3.495 19.565 3.495 13 4 C13 4.99 13 5.98 13 7 C11.58208592 6.54554036 10.16571954 6.08625056 8.75 5.625 C7.96109375 5.36976563 7.1721875 5.11453125 6.359375 4.8515625 C4.13372042 4.04826333 2.09068328 3.10288338 0 2 C0 1.34 0 0.68 0 0 Z " fill="#DD524B" transform="translate(489,381)"/>
<path d="M0 0 C0.33 0 0.66 0 1 0 C1.33895656 1.72807318 1.67091525 3.45751974 2 5.1875 C2.185625 6.15042969 2.37125 7.11335937 2.5625 8.10546875 C2.96877612 10.7934206 3.07933572 13.28771019 3 16 C2.01 16 1.02 16 0 16 C-2.30905137 11.52621297 -2.66065191 6.94517384 -2 2 C-1.34 1.34 -0.68 0.68 0 0 Z " fill="#D33A34" transform="translate(477,721)"/>
<path d="M0 0 C2.64 0.99 5.28 1.98 8 3 C7.33333333 5 6.66666667 7 6 9 C2.06326356 7.68775452 -0.22719294 6.08089673 -3 3 C-2.01 2.67 -1.02 2.34 0 2 C0 1.34 0 0.68 0 0 Z " fill="#E4E8E9" transform="translate(487,382)"/>
<path d="M0 0 C1.32 0.33 2.64 0.66 4 1 C3.57405412 2.44096586 3.13373367 3.87768712 2.6875 5.3125 C2.44386719 6.11300781 2.20023438 6.91351562 1.94921875 7.73828125 C0.94645651 10.12757893 0.01940718 11.39589507 -2 13 C-2.66 13 -3.32 13 -4 13 C-4.99 13.495 -4.99 13.495 -6 14 C-5.71382812 13.44828125 -5.42765625 12.8965625 -5.1328125 12.328125 C-3.92260849 9.84094711 -2.8904694 7.32252247 -1.875 4.75 C-1.52179687 3.85796875 -1.16859375 2.9659375 -0.8046875 2.046875 C-0.53914062 1.37140625 -0.27359375 0.6959375 0 0 Z " fill="#98CA88" transform="translate(658,734)"/>
<path d="M0 0 C0 0.99 0 1.98 0 3 C-3.34939881 5.02558881 -5.86962551 5.21738987 -9.75 5.125 C-10.73484375 5.10695313 -11.7196875 5.08890625 -12.734375 5.0703125 C-13.85585938 5.03550781 -13.85585938 5.03550781 -15 5 C-15 4.01 -15 3.02 -15 2 C-13.06302033 1.66365624 -11.12539514 1.33102835 -9.1875 1 C-7.56908203 0.7215625 -7.56908203 0.7215625 -5.91796875 0.4375 C-3 0 -3 0 0 0 Z " fill="#86C476" transform="translate(636,759)"/>
<path d="M0 0 C4.59664549 0.48515578 6.74144221 2.17623059 10.0625 5.3125 C10.89910156 6.09238281 11.73570312 6.87226563 12.59765625 7.67578125 C14.75445956 9.76244461 16.88779381 11.86828152 19 14 C14.20178341 12.37885498 10.3327141 9.70723241 6.1875 6.875 C5.49462891 6.40707031 4.80175781 5.93914062 4.08789062 5.45703125 C2.38908895 4.30887563 0.69415136 3.15500633 -1 2 C-0.67 1.34 -0.34 0.68 0 0 Z " fill="#175B90" transform="translate(481,505)"/>
<path d="M0 0 C0.66 0.33 1.32 0.66 2 1 C1.54625 1.391875 1.0925 1.78375 0.625 2.1875 C-1.27642919 4.30832487 -2.06204028 6.33042235 -3 9 C-2.34 9.33 -1.68 9.66 -1 10 C-1.33 10.99 -1.66 11.98 -2 13 C-2 12.34 -2 11.68 -2 11 C-4.47266765 11.34444881 -4.47266765 11.34444881 -7 12 C-7.33 12.66 -7.66 13.32 -8 14 C-8.66 14 -9.32 14 -10 14 C-8.34315356 7.67385905 -5.47690984 3.65127323 0 0 Z " fill="#E3EAEC" transform="translate(489,451)"/>
<path d="M0 0 C1.58971965 2.38457948 2.86741593 4.6304124 4.125 7.1875 C4.47820312 7.90292969 4.83140625 8.61835937 5.1953125 9.35546875 C5.46085937 9.89816406 5.72640625 10.44085937 6 11 C4.02 11.99 4.02 11.99 2 13 C1.16151196 11.54462432 0.32936066 10.08559627 -0.5 8.625 C-1.19609375 7.40683594 -1.19609375 7.40683594 -1.90625 6.1640625 C-3 4 -3 4 -3 2 C-2.01 2 -1.02 2 0 2 C0 1.34 0 0.68 0 0 Z " fill="#DB5249" transform="translate(480,735)"/>
<path d="M0 0 C1.9375 0.375 1.9375 0.375 4 1 C4.33 1.66 4.66 2.32 5 3 C3.02 5.97 3.02 5.97 1 9 C-0.32 8.67 -1.64 8.34 -3 8 C-2.45276317 4.62537285 -1.9451 2.91765 0 0 Z " fill="#0A568E" transform="translate(395,711)"/>
<path d="M0 0 C5.94 0.33 11.88 0.66 18 1 C18 1.33 18 1.66 18 2 C17.030625 2.12375 16.06125 2.2475 15.0625 2.375 C14.051875 2.58125 13.04125 2.7875 12 3 C11.67 3.66 11.34 4.32 11 5 C3.51533742 4.38650307 3.51533742 4.38650307 1 2.5 C0 1 0 1 0 0 Z " fill="#98C887" transform="translate(610,759)"/>
<path d="M0 0 C1.2065625 0.0309375 1.2065625 0.0309375 2.4375 0.0625 C2.7675 0.7225 3.0975 1.3825 3.4375 2.0625 C2.4475 2.0625 1.4575 2.0625 0.4375 2.0625 C0.4375 4.3725 0.4375 6.6825 0.4375 9.0625 C1.7575 9.0625 3.0775 9.0625 4.4375 9.0625 C4.4375 9.7225 4.4375 10.3825 4.4375 11.0625 C1.5625 11.25 1.5625 11.25 -1.5625 11.0625 C-2.2225 10.0725 -2.8825 9.0825 -3.5625 8.0625 C-2.6875 4.875 -2.6875 4.875 -1.5625 2.0625 C-2.2225 1.7325 -2.8825 1.4025 -3.5625 1.0625 C-2.5625 0.0625 -2.5625 0.0625 0 0 Z " fill="#CCD9E1" transform="translate(481.5625,405.9375)"/>
<path d="M0 0 C1.2065625 0.0309375 1.2065625 0.0309375 2.4375 0.0625 C3.0625 2.4375 3.0625 2.4375 3.4375 5.0625 C2.7775 5.7225 2.1175 6.3825 1.4375 7.0625 C-1.1875 6.6875 -1.1875 6.6875 -3.5625 6.0625 C-3.605221 4.39638095 -3.60313832 2.72867115 -3.5625 1.0625 C-2.5625 0.0625 -2.5625 0.0625 0 0 Z " fill="#176095" transform="translate(473.5625,401.9375)"/>
<path d="M0 0 C1.31611677 0.95336021 2.62778961 1.91285774 3.9375 2.875 C4.66839844 3.40867187 5.39929688 3.94234375 6.15234375 4.4921875 C8 6 8 6 9 8 C5.75 8.3125 5.75 8.3125 2 8 C-0.4375 5.625 -0.4375 5.625 -2 3 C-2 2.34 -2 1.68 -2 1 C-1.34 0.67 -0.68 0.34 0 0 Z " fill="#DB4139" transform="translate(485,746)"/>
<path d="M0 0 C0.99 0 1.98 0 3 0 C3.33 4.62 3.66 9.24 4 14 C2.35 13.67 0.7 13.34 -1 13 C-0.67 8.71 -0.34 4.42 0 0 Z " fill="#E8EBED" transform="translate(404,737)"/>
<path d="M0 0 C1.32 0.66 2.64 1.32 4 2 C3.01 4.97 2.02 7.94 1 11 C-0.32 11 -1.64 11 -3 11 C-2.53199289 6.94393835 -2.12046792 3.53411321 0 0 Z " fill="#1A639A" transform="translate(370,705)"/>
<path d="M0 0 C5.78461538 4.43076923 5.78461538 4.43076923 6.875 7.3125 C6.936875 8.1478125 6.936875 8.1478125 7 9 C2.12637153 8.54663921 -0.39042389 7.2910841 -4 4 C-2.68 3.67 -1.36 3.34 0 3 C0 2.01 0 1.02 0 0 Z " fill="#E5EBED" transform="translate(614,710)"/>
<path d="M0 0 C0.66 0 1.32 0 2 0 C2 6.27 2 12.54 2 19 C1.34 19 0.68 19 0 19 C-0.1938211 16.02111874 -0.38035102 13.04209754 -0.5625 10.0625 C-0.61857422 9.21236328 -0.67464844 8.36222656 -0.73242188 7.48632812 C-0.80493164 6.27299805 -0.80493164 6.27299805 -0.87890625 5.03515625 C-0.9260376 4.2862915 -0.97316895 3.53742676 -1.02172852 2.76586914 C-1 1 -1 1 0 0 Z " fill="#F0F0EF" transform="translate(395,606)"/>
<path d="M0 0 C1.5625 1.6875 1.5625 1.6875 3 4 C2.6875 6.75 2.6875 6.75 2 9 C0.68 9 -0.64 9 -2 9 C-2.66 7.02 -3.32 5.04 -4 3 C-3.01 2.67 -2.02 2.34 -1 2 C-0.67 1.34 -0.34 0.68 0 0 Z " fill="#1D6497" transform="translate(421,721)"/>
<path d="M0 0 C0.66 0.33 1.32 0.66 2 1 C2 3.64 2 6.28 2 9 C1.01 9.495 1.01 9.495 0 10 C-0.66 10.99 -1.32 11.98 -2 13 C-2.05391993 11.20866022 -2.09275571 9.41686101 -2.125 7.625 C-2.14820313 6.62726562 -2.17140625 5.62953125 -2.1953125 4.6015625 C-2 2 -2 2 0 0 Z " fill="#D7E0E5" transform="translate(622,732)"/>
<path d="M0 0 C2.4375 0.5 2.4375 0.5 4.25 1.625 C5.92856106 4.27535957 5.64200238 6.43246424 5.4375 9.5 C5.1075 9.5 4.7775 9.5 4.4375 9.5 C3.7775 7.52 3.1175 5.54 2.4375 3.5 C-1.49325644 4.07452746 -1.49325644 4.07452746 -4.5625 6.5 C-4.96014263 8.48821313 -5.30025349 10.48944339 -5.5625 12.5 C-5.8925 12.5 -6.2225 12.5 -6.5625 12.5 C-6.87947773 8.45853394 -6.92002198 6.12235307 -4.875 2.5625 C-2.5625 0.5 -2.5625 0.5 0 0 Z " fill="#DD5C56" transform="translate(533.5625,715.5)"/>
<path d="M0 0 C4.19469571 0.59924224 8.00999834 1.57499941 12 3 C12 3.66 12 4.32 12 5 C10.5629191 5.05422947 9.12524538 5.09289723 7.6875 5.125 C6.88699219 5.14820313 6.08648437 5.17140625 5.26171875 5.1953125 C3 5 3 5 0 3 C0 2.01 0 1.02 0 0 Z " fill="#F6F7F6" transform="translate(470,426)"/>
<path d="M0 0 C1.32 0 2.64 0 4 0 C4 2.64 4 5.28 4 8 C3.01 8 2.02 8 1 8 C-0.6875 5.5 -0.6875 5.5 -2 3 C-1.34 2.01 -0.68 1.02 0 0 Z " fill="#EEEBEA" transform="translate(617,305)"/>
<path d="M0 0 C0.99 0 1.98 0 3 0 C3.99 3.63 4.98 7.26 6 11 C4.68 10.67 3.36 10.34 2 10 C0.12320013 6.62176024 -0.21849583 3.82367701 0 0 Z " fill="#185A8D" transform="translate(526,497)"/>
<path d="M0 0 C0.33 0 0.66 0 1 0 C1 4.29 1 8.58 1 13 C0.01 13 -0.98 13 -2 13 C-2 9.37 -2 5.74 -2 2 C-1.34 2 -0.68 2 0 2 C0 1.34 0 0.68 0 0 Z " fill="#024D87" transform="translate(522,496)"/>
<path d="M0 0 C1.32 0 2.64 0 4 0 C4 3.96 4 7.92 4 12 C0 9 0 9 -0.390625 6.73828125 C-0.34421875 5.93777344 -0.2978125 5.13726563 -0.25 4.3125 C-0.21390625 3.50425781 -0.1778125 2.69601562 -0.140625 1.86328125 C-0.09421875 1.24839844 -0.0478125 0.63351562 0 0 Z " fill="#D9544F" transform="translate(551,717)"/>
<path d="M0 0 C1.32 0.33 2.64 0.66 4 1 C2.82744291 4.33727786 1.81131596 6.77437487 -1 9 C-1.66 9 -2.32 9 -3 9 C-2.44271087 5.65626525 -1.64826111 2.96687001 0 0 Z " fill="#D54E47" transform="translate(547,739)"/>
<path d="M0 0 C3.69230769 0.69230769 3.69230769 0.69230769 5 2 C6.155 2.144375 7.31 2.28875 8.5 2.4375 C9.655 2.623125 10.81 2.80875 12 3 C12.33 3.66 12.66 4.32 13 5 C3.82713348 5.63019694 3.82713348 5.63019694 0.375 3 C-0.07875 2.34 -0.5325 1.68 -1 1 C-0.67 0.67 -0.34 0.34 0 0 Z " fill="#E1E8ED" transform="translate(397,709)"/>
<path d="M0 0 C1.65 0.33 3.3 0.66 5 1 C4.67 2.65 4.34 4.3 4 6 C2.35 5.67 0.7 5.34 -1 5 C-0.67 3.35 -0.34 1.7 0 0 Z " fill="#095C95" transform="translate(488,403)"/>
<path d="M0 0 C0 0.99 0 1.98 0 3 C-4.95 3 -9.9 3 -15 3 C-10.36847894 -0.08768071 -5.42751158 0 0 0 Z " fill="#D3342F" transform="translate(523,760)"/>
<path d="M0 0 C0.66 0.33 1.32 0.66 2 1 C1.875 2.875 1.875 2.875 1 5 C-2.0625 6.25 -2.0625 6.25 -5 7 C-5.66 5.68 -6.32 4.36 -7 3 C-4.69631264 1.93347808 -2.35981813 0.93578995 0 0 Z " fill="#1F659B" transform="translate(394,685)"/>
<path d="M0 0 C0.33 0.66 0.66 1.32 1 2 C1.66 2.33 2.32 2.66 3 3 C2.01 3.66 1.02 4.32 0 5 C0 5.99 0 6.98 0 8 C-4.29 7.67 -8.58 7.34 -13 7 C-13 6.67 -13 6.34 -13 6 C-12.30132812 5.97421875 -11.60265625 5.9484375 -10.8828125 5.921875 C-9.97273438 5.86515625 -9.06265625 5.8084375 -8.125 5.75 C-7.22007812 5.70359375 -6.31515625 5.6571875 -5.3828125 5.609375 C-2.84009319 5.24920558 -2.84009319 5.24920558 -1.7421875 3.015625 C-1.49726563 2.35046875 -1.25234375 1.6853125 -1 1 C-0.67 0.67 -0.34 0.34 0 0 Z " fill="#B2CAD9" transform="translate(412,708)"/>
<path d="M0 0 C2.97 0 5.94 0 9 0 C9 0.66 9 1.32 9 2 C5.38026598 3.31626692 2.90432869 4 -1 4 C-0.67 2.68 -0.34 1.36 0 0 Z " fill="#155C91" transform="translate(546,361)"/>
<path d="M0 0 C0.66 0.99 1.32 1.98 2 3 C-1.96 5.64 -5.92 8.28 -10 11 C-10.66 10.67 -11.32 10.34 -12 10 C-10.82630859 9.04287109 -10.82630859 9.04287109 -9.62890625 8.06640625 C-8.61699219 7.24011719 -7.60507812 6.41382813 -6.5625 5.5625 C-5.55316406 4.73878906 -4.54382813 3.91507812 -3.50390625 3.06640625 C-1.70216039 1.58798996 -1.70216039 1.58798996 0 0 Z " fill="#D96961" transform="translate(536,506)"/>
<path d="M0 0 C0.33 0.66 0.66 1.32 1 2 C0.27931168 3.73620367 -0.44747119 5.47067912 -1.23046875 7.1796875 C-2.17352248 9.41046435 -2.63800012 11.61080078 -3 14 C-3.99 13.34 -4.98 12.68 -6 12 C-4.68139111 7.38486888 -2.78644563 3.90102388 0 0 Z " fill="#D5E1E7" transform="translate(399,715)"/>
<path d="M0 0 C0.66 0 1.32 0 2 0 C2 2.97 2 5.94 2 9 C1.01 9.33 0.02 9.66 -1 10 C-1.02689216 8.52093108 -1.04634621 7.04172517 -1.0625 5.5625 C-1.07410156 4.73878906 -1.08570313 3.91507813 -1.09765625 3.06640625 C-1 1 -1 1 0 0 Z " fill="#84BE72" transform="translate(585,718)"/>
<path d="M0 0 C0.66 0.33 1.32 0.66 2 1 C1.21718695 2.33855056 0.42348123 3.67073644 -0.375 5 C-0.81585938 5.7425 -1.25671875 6.485 -1.7109375 7.25 C-2.34902344 8.11625 -2.34902344 8.11625 -3 9 C-3.66 9 -4.32 9 -5 9 C-5.125 6.125 -5.125 6.125 -5 3 C-3 1 -3 1 0 0 Z " fill="#EDE8E7" transform="translate(482,698)"/>
<path d="M0 0 C0.33 1.32 0.66 2.64 1 4 C0.01 4.66 -0.98 5.32 -2 6 C-3.19232613 8.05003955 -3.19232613 8.05003955 -4 10 C-4.99 10 -5.98 10 -7 10 C-5.6062718 5.56541027 -3.39417765 3.12621626 0 0 Z " fill="#E0E8EC" transform="translate(444,380)"/>
<path d="M0 0 C1.32 0.33 2.64 0.66 4 1 C5.125 6.625 5.125 6.625 4 10 C2.68 9.67 1.36 9.34 0 9 C0.66 8.34 1.32 7.68 2 7 C2.16687448 4.41645782 2.16687448 4.41645782 2 2 C1.34 2 0.68 2 0 2 C0 1.34 0 0.68 0 0 Z " fill="#DBE3EA" transform="translate(474,400)"/>
<path d="M0 0 C0.66 0.66 1.32 1.32 2 2 C2.66 1.34 3.32 0.68 4 0 C4 3.96 4 7.92 4 12 C3.67 12 3.34 12 3 12 C2.67 10.02 2.34 8.04 2 6 C1.01 6.495 1.01 6.495 0 7 C0 4.69 0 2.38 0 0 Z " fill="#D85850" transform="translate(475,716)"/>
<path d="M0 0 C0.33 0 0.66 0 1 0 C1.103125 0.94875 1.20625 1.8975 1.3125 2.875 C1.68539295 6.29107501 1.68539295 6.29107501 5 8 C4.21625 8.45375 3.4325 8.9075 2.625 9.375 C-0.03698031 10.88428742 -0.03698031 10.88428742 -2 13 C-2 10.0845524 -1.59136731 7.65845519 -1 4.8125 C-0.814375 3.91144531 -0.62875 3.01039063 -0.4375 2.08203125 C-0.293125 1.39496094 -0.14875 0.70789063 0 0 Z " fill="#ECE7E5" transform="translate(529,708)"/>
<path d="M0 0 C0.6875 1.6875 0.6875 1.6875 1 4 C-0.3125 6.75 -0.3125 6.75 -2 9 C-2.66 9 -3.32 9 -4 9 C-4 7.35 -4 5.7 -4 4 C-3.34 4 -2.68 4 -2 4 C-1.34 2.68 -0.68 1.36 0 0 Z " fill="#D23631" transform="translate(483,702)"/>
<path d="M0 0 C2.97 1.98 2.97 1.98 6 4 C5.34 5.98 4.68 7.96 4 10 C1.16625119 6.79663178 0.4794463 4.21912747 0 0 Z " fill="#D94F45" transform="translate(526,424)"/>
<path d="M0 0 C-0.37330824 2.72574271 -0.79194601 3.80822085 -2.84765625 5.703125 C-3.94400391 6.46882813 -3.94400391 6.46882813 -5.0625 7.25 C-5.79597656 7.77078125 -6.52945312 8.2915625 -7.28515625 8.828125 C-7.85105469 9.21484375 -8.41695313 9.6015625 -9 10 C-7.6834994 5.81113445 -4.97532335 0 0 0 Z " fill="#236CA0" transform="translate(400,315)"/>
<path d="M0 0 C-0.6875 1.9375 -0.6875 1.9375 -2 4 C-4.625 4.75 -4.625 4.75 -7 5 C-7 4.01 -7 3.02 -7 2 C-7.66 1.67 -8.32 1.34 -9 1 C-2.25 -1.125 -2.25 -1.125 0 0 Z " fill="#D54D47" transform="translate(530,758)"/>
<path d="M0 0 C1.32 0.33 2.64 0.66 4 1 C4 1.66 4 2.32 4 3 C3.01 3 2.02 3 1 3 C1.66 4.65 2.32 6.3 3 8 C2.01 8.495 2.01 8.495 1 9 C-0.625 6.75 -0.625 6.75 -2 4 C-1.1875 1.6875 -1.1875 1.6875 0 0 Z " fill="#166197" transform="translate(413,711)"/>
<path d="M0 0 C0 3 0 3 -1.75 5.04296875 C-2.4925 5.75066406 -3.235 6.45835937 -4 7.1875 C-4.7425 7.90292969 -5.485 8.61835937 -6.25 9.35546875 C-6.8275 9.89816406 -7.405 10.44085937 -8 11 C-8 7.0234755 -6.61988497 5.9109833 -4 3 C-1.75 1.1875 -1.75 1.1875 0 0 Z " fill="#E8DFDB" transform="translate(494,694)"/>
<path d="M0 0 C2.53406213 0.41412689 3.38974184 1.39458144 5.0078125 3.328125 C4.41613281 3.22113281 3.82445312 3.11414063 3.21484375 3.00390625 C-2.04982241 2.17712509 -2.04982241 2.17712509 -7.0546875 3.765625 C-7.6940625 4.28125 -8.3334375 4.796875 -8.9921875 5.328125 C-6.55033823 0.28163651 -5.79214179 0.21373217 0 0 Z " fill="#DE4842" transform="translate(660.9921875,577.671875)"/>
<path d="M0 0 C0.66 0 1.32 0 2 0 C2.38133299 1.9914056 2.71325582 3.99279077 3 6 C2.67 6.33 2.34 6.66 2 7 C1.63239269 9.32817964 1.29758419 11.6618385 1 14 C0.67 14 0.34 14 0 14 C0 9.38 0 4.76 0 0 Z " fill="#B1C8D6" transform="translate(523,495)"/>
<path d="M0 0 C0.99 0.33 1.98 0.66 3 1 C2.67 2.98 2.34 4.96 2 7 C0.68 7 -0.64 7 -2 7 C-1.125 2.25 -1.125 2.25 0 0 Z " fill="#DBE1E3" transform="translate(498,496)"/>
<path d="M0 0 C0.33 0 0.66 0 1 0 C1.33 5.61 1.66 11.22 2 17 C1.01 17.33 0.02 17.66 -1 18 C-0.505 9.09 -0.505 9.09 0 0 Z " fill="#DF6F69" transform="translate(588,419)"/>
<path d="M0 0 C1.1446875 0.3403125 1.1446875 0.3403125 2.3125 0.6875 C1.9825 1.6775 1.6525 2.6675 1.3125 3.6875 C-0.0075 3.6875 -1.3275 3.6875 -2.6875 3.6875 C-3.3475 4.6775 -4.0075 5.6675 -4.6875 6.6875 C-5.375 4.875 -5.375 4.875 -5.6875 2.6875 C-3.97309355 -0.07459928 -3.26180423 -0.37927956 0 0 Z " fill="#C1D5E0" transform="translate(490.6875,400.3125)"/>
<path d="M0 0 C0.33 0 0.66 0 1 0 C1 2.97 1 5.94 1 9 C-0.32 9.33 -1.64 9.66 -3 10 C-2.67 7.69 -2.34 5.38 -2 3 C-1.34 3 -0.68 3 0 3 C0 2.01 0 1.02 0 0 Z " fill="#DC4D46" transform="translate(605,327)"/>
<path d="M0 0 C0.99 0 1.98 0 3 0 C3.625 1.875 3.625 1.875 4 4 C1.77810176 6.22189824 -0.08482708 6.92598892 -3 8 C-2.690625 7.236875 -2.38125 6.47375 -2.0625 5.6875 C-1.32106407 3.81210323 -0.63771783 1.91315348 0 0 Z " fill="#18639A" transform="translate(438,738)"/>
<path d="M0 0 C1.85776765 3.13498292 2.20140476 5.37471432 2 9 C1.01 9 0.02 9 -1 9 C-2.0326802 6.21176345 -2.04509293 5.1322726 -1.0625 2.25 C-0.711875 1.5075 -0.36125 0.765 0 0 Z " fill="#D5423B" transform="translate(478,728)"/>
<path d="M0 0 C1.65 1.65 3.3 3.3 5 5 C4.67 5.66 4.34 6.32 4 7 C3.01 7 2.02 7 1 7 C0 6 0 6 -0.0625 2.9375 C-0.041875 1.968125 -0.02125 0.99875 0 0 Z " fill="#D43632" transform="translate(544,698)"/>
<path d="M0 0 C1.051875 0.928125 1.051875 0.928125 2.125 1.875 C5.05777181 4.0427009 7.51182406 5.02655555 11 6 C9.02 6.99 9.02 6.99 7 8 C1.25 4.375 1.25 4.375 -1 1 C-0.67 0.67 -0.34 0.34 0 0 Z " fill="#C7D4DB" transform="translate(522,468)"/>
<path d="M0 0 C1.9375 0.125 1.9375 0.125 4 1 C5.25 3.5625 5.25 3.5625 6 6 C3.11424181 5.60196439 2.17810487 5.20990931 0.25 2.9375 C-0.1625 2.298125 -0.575 1.65875 -1 1 C-0.67 0.67 -0.34 0.34 0 0 Z " fill="#D7E0E4" transform="translate(481,500)"/>
<path d="M0 0 C1.65 1.65 3.3 3.3 5 5 C4.34 5 3.68 5 3 5 C2.67 5.99 2.34 6.98 2 8 C0.4375 6.8125 0.4375 6.8125 -1 5 C-0.6875 2.3125 -0.6875 2.3125 0 0 Z " fill="#126298" transform="translate(473,495)"/>
<path d="M0 0 C0.66 0 1.32 0 2 0 C1.67 1.98 1.34 3.96 1 6 C-0.98 6 -2.96 6 -5 6 C-3.38405168 3.95880212 -1.7143618 1.95927063 0 0 Z " fill="#D65F57" transform="translate(577,424)"/>
<path d="M0 0 C1.9375 0.3125 1.9375 0.3125 4 1 C4.33 1.99 4.66 2.98 5 4 C4.34 4 3.68 4 3 4 C2.67 4.99 2.34 5.98 2 7 C1.34 7 0.68 7 0 7 C0 4.69 0 2.38 0 0 Z " fill="#12629A" transform="translate(482,408)"/>
<path d="M0 0 C0.598125 0.20625 1.19625 0.4125 1.8125 0.625 C1.1525 1.945 0.4925 3.265 -0.1875 4.625 C-0.8475 4.625 -1.5075 4.625 -2.1875 4.625 C-2.1875 3.965 -2.1875 3.305 -2.1875 2.625 C-3.1775 2.295 -4.1675 1.965 -5.1875 1.625 C-2.1875 -0.375 -2.1875 -0.375 0 0 Z " fill="#195E93" transform="translate(387.1875,689.375)"/>
<path d="M0 0 C1.41377341 2.63904371 2.37240135 5.07120629 3 8 C1.35 8 -0.3 8 -2 8 C-2 4.23312136 -1.76462683 3.08809695 0 0 Z " fill="#ECE5E2" transform="translate(677,611)"/>
<path d="M0 0 C0.66 0.33 1.32 0.66 2 1 C2 1.99 2 2.98 2 4 C1.01 4.495 1.01 4.495 0 5 C-0.66 4.67 -1.32 4.34 -2 4 C-2.33 4.99 -2.66 5.98 -3 7 C-3.33 6.01 -3.66 5.02 -4 4 C-2.68 2.68 -1.36 1.36 0 0 Z " fill="#D53832" transform="translate(488,694)"/>
<path d="M0 0 C0.66 1.32 1.32 2.64 2 4 C0.02 4.99 0.02 4.99 -2 6 C-2.66 5.01 -3.32 4.02 -4 3 C-2.68 2.01 -1.36 1.02 0 0 Z " fill="#97C884" transform="translate(602,690)"/>
<path d="M0 0 C5.03985731 0.44469329 7.37634988 2.71343362 11 6 C7.61121488 6 6.60242783 5.35638802 3.8125 3.5625 C2.73935547 2.88380859 2.73935547 2.88380859 1.64453125 2.19140625 C1.10183594 1.79824219 0.55914062 1.40507813 0 1 C0 0.67 0 0.34 0 0 Z " fill="#4179A4" transform="translate(489,512)"/>
<path d="M0 0 C1.32 0 2.64 0 4 0 C4 0.66 4 1.32 4 2 C-0.38461538 5 -0.38461538 5 -3 5 C-1.125 1.125 -1.125 1.125 0 0 Z " fill="#D84B42" transform="translate(540,503)"/>
<path d="M0 0 C2.475 0.99 2.475 0.99 5 2 C3.1875 3.5625 3.1875 3.5625 1 5 C0.01 4.67 -0.98 4.34 -2 4 C-1.34 2.68 -0.68 1.36 0 0 Z " fill="#F3F2F2" transform="translate(467,482)"/>
<path d="M0 0 C0.33 0.99 0.66 1.98 1 3 C-2.465 4.485 -2.465 4.485 -6 6 C-6.66 5.34 -7.32 4.68 -8 4 C-5.36 2.68 -2.72 1.36 0 0 Z " fill="#D9E3E7" transform="translate(454,441)"/>
<path d="M0 0 C0 3 0 3 -1.3125 4.38671875 C-2.875 5.59114583 -4.4375 6.79557292 -6 8 C-6.66 7.67 -7.32 7.34 -8 7 C-5.36 4.69 -2.72 2.38 0 0 Z " fill="#DD514A" transform="translate(540,296)"/>
<path d="M0 0 C0.66 0.66 1.32 1.32 2 2 C1.01 3.485 1.01 3.485 0 5 C-0.66 5 -1.32 5 -2 5 C-2 6.98 -2 8.96 -2 11 C-2.33 11 -2.66 11 -3 11 C-3.36923077 4.6 -3.36923077 4.6 -1.5 1.5625 C-1.005 1.046875 -0.51 0.53125 0 0 Z " fill="#DC7169" transform="translate(519,704)"/>
<path d="M0 0 C0.33 0 0.66 0 1 0 C1.625 2.875 1.625 2.875 2 6 C-0.1385485 8.1385485 -1.13275314 8.42655063 -4 9 C-3.67 8.01 -3.34 7.02 -3 6 C-2.34 6 -1.68 6 -1 6 C-0.67 4.02 -0.34 2.04 0 0 Z " fill="#E0E6E9" transform="translate(451,452)"/>
<path d="M0 0 C0 0.66 0 1.32 0 2 C0.66 2.33 1.32 2.66 2 3 C-0.97 3 -3.94 3 -7 3 C-5.40442685 -0.19114631 -3.35905282 0 0 0 Z " fill="#EBEEED" transform="translate(520,450)"/>
<path d="M0 0 C2.97 1.65 5.94 3.3 9 5 C8.67 5.66 8.34 6.32 8 7 C5.03 5.35 2.06 3.7 -1 2 C-0.67 1.34 -0.34 0.68 0 0 Z " fill="#ECE3DF" transform="translate(536,430)"/>
<path d="M0 0 C-0.66 1.32 -1.32 2.64 -2 4 C-4.31 4 -6.62 4 -9 4 C-3 0 -3 0 0 0 Z " fill="#E15B56" transform="translate(570,369)"/>
<path d="M0 0 C2.97 0.495 2.97 0.495 6 1 C5.67 1.99 5.34 2.98 5 4 C3.35 3.67 1.7 3.34 0 3 C0 2.01 0 1.02 0 0 Z " fill="#044F8F" transform="translate(395,759)"/>
<path d="M0 0 C0.99 0 1.98 0 3 0 C3.1875 2.375 3.1875 2.375 3 5 C2.01 5.66 1.02 6.32 0 7 C0 4.69 0 2.38 0 0 Z " fill="#025394" transform="translate(442,721)"/>
<path d="M0 0 C0.66 0.66 1.32 1.32 2 2 C1.2884375 2.556875 1.2884375 2.556875 0.5625 3.125 C-1.52205802 5.62646962 -1.64621491 7.81593418 -2 11 C-2.33 11 -2.66 11 -3 11 C-3.36923077 4.6 -3.36923077 4.6 -1.5 1.5625 C-1.005 1.046875 -0.51 0.53125 0 0 Z " fill="#DB665F" transform="translate(530,717)"/>
<path d="M0 0 C1.32 0.33 2.64 0.66 4 1 C3.625 2.9375 3.625 2.9375 3 5 C2.01 5.495 2.01 5.495 1 6 C0.67 4.02 0.34 2.04 0 0 Z " fill="#2A6699" transform="translate(641,708)"/>
<path d="M0 0 C1.32 0 2.64 0 4 0 C4 1.65 4 3.3 4 5 C2.35 4.67 0.7 4.34 -1 4 C-0.67 2.68 -0.34 1.36 0 0 Z " fill="#DA574F" transform="translate(523,685)"/>
<path d="M0 0 C0.66 0.33 1.32 0.66 2 1 C2.625 3.5625 2.625 3.5625 3 6 C2.01 6.33 1.02 6.66 0 7 C-0.38133299 5.0085944 -0.71325582 3.00720923 -1 1 C-0.67 0.67 -0.34 0.34 0 0 Z " fill="#E0E9ED" transform="translate(525,501)"/>
<path d="M0 0 C1.32 0.99 2.64 1.98 4 3 C3.67 3.99 3.34 4.98 3 6 C2.01 6 1.02 6 0 6 C-0.38218767 4.34385343 -0.71395102 2.67542976 -1 1 C-0.67 0.67 -0.34 0.34 0 0 Z " fill="#E7EAEB" transform="translate(478,505)"/>
<path d="M0 0 C1.98 0 3.96 0 6 0 C6.33 0.66 6.66 1.32 7 2 C4.36 2.33 1.72 2.66 -1 3 C-0.67 2.01 -0.34 1.02 0 0 Z " fill="#D5332F" transform="translate(561,373)"/>
</svg>
